<?xml version="1.0" encoding="UTF-8"?>
<svg width="96px" height="39px" viewBox="0 0 96 39" version="1.1" xmlns="http://www.w3.org/2000/svg" xmlns:xlink="http://www.w3.org/1999/xlink">
    <title>Group</title>
    <g id="Symbols" stroke="none" stroke-width="1" fill="none" fill-rule="evenodd">
        <g id="Group" fill-rule="nonzero">
            <path d="M26.6786709,17.3322772 C27.1801496,17.6388924 27.6147646,18.4224646 27.6147646,19.0697634 C27.6147646,19.7170622 27.1801496,19.9896091 26.6786709,19.7170622 L21.1624043,16.5146366 C20.6609256,16.2080213 20.2263106,15.4244491 20.2263106,14.7430819 L20.2263106,8.50857243 C20.2263106,7.82720526 20.6609256,7.52059004 21.1624043,7.82720526 L21.4298597,7.99754705 C21.9313385,8.30416228 22.3659534,9.08773451 22.3659534,9.76910167 L22.3659534,12.3242285 C22.3659534,13.0055957 22.8005683,13.3122109 23.3020471,13.0055957 L29.888135,9.18993959 C30.3896138,8.88332436 30.4230457,8.40636735 29.888135,8.09975213 L16.782823,0.229961417 C16.2813442,-0.0766538056 15.4455463,-0.0766538056 14.9106356,0.229961417 L1.87218743,8.03161541 C1.37070865,8.33823063 1.37070865,8.84925601 1.87218743,9.12180287 L8.42484343,12.9715273 C8.92632221,13.2781426 9.36093714,12.9715273 9.36093714,12.2901602 L9.36093714,9.73503332 C9.36093714,9.05366615 9.79555208,8.27009392 10.2970309,7.9634787 L10.5644862,7.79313691 C11.065965,7.48652168 11.5005799,7.79313691 11.5005799,8.47450407 L11.5005799,14.7090136 C11.5005799,15.3903808 11.065965,16.173953 10.5644862,16.4805682 L5.04821967,19.6829939 C4.5467409,19.9896091 4.11212596,19.6829939 4.11212596,19.0356951 C4.11212596,18.3883963 4.5467409,17.604824 5.04821967,17.2982088 L7.38845396,15.9014061 C7.88993274,15.5947909 7.88993274,15.0837655 7.38845396,14.7771503 L0.936093714,10.9614942 C0.434614939,10.654879 -1.42108547e-14,10.9614942 -1.42108547e-14,11.6428614 L-1.42108547e-14,26.8032807 C-1.42108547e-14,27.4846479 0.434614939,28.3022885 0.936093714,28.6089037 L13.907678,36.3764893 C14.4091568,36.6831045 14.8437718,36.3764893 14.8437718,35.6951222 L14.8437718,27.689058 C14.8437718,27.0076909 14.4091568,26.7010756 13.907678,27.0076909 L11.5674438,28.3704252 C11.065965,28.6770404 10.1967351,28.6770404 9.69525633,28.4044935 L9.4612329,28.2682201 C8.92632221,27.9956732 8.92632221,27.4846479 9.4612329,27.1780326 L15.0109313,23.8734019 C15.5124101,23.5667867 16.38164,23.5667867 16.8831188,23.8734019 L22.3659534,27.1098959 C22.8674322,27.4165111 22.9008641,27.9275365 22.3659534,28.2682201 L22.13193,28.4044935 C21.6304512,28.7451771 20.7946532,28.7451771 20.2931745,28.4385619 L17.8860763,26.9736225 C17.3845976,26.6670073 16.9499826,26.9736225 16.9499826,27.6549897 L16.9499826,35.6610538 C16.9499826,36.342421 17.3845976,36.6490362 17.8860763,36.342421 L30.7573649,28.642972 C31.2588437,28.3363568 31.6934586,27.5187162 31.6934586,26.8714174 L31.6934586,11.7791348 C31.6934586,11.0977676 31.2588437,10.7911524 30.7573649,11.0977676 L24.3718685,14.845287 C23.8703897,15.1519022 23.8703897,15.6629276 24.3718685,15.9695428 L26.6786709,17.3322772 Z M28.5842902,20.9094548 C28.5842902,20.2280876 29.0189051,19.4445154 29.5203839,19.1379001 L29.6541116,19.0697634 C30.1555904,18.7631482 30.5902053,19.0697634 30.5902053,19.7511306 L30.5902053,25.8493667 C30.5902053,26.5307338 30.1555904,27.3483744 29.6541116,27.6549897 L24.2381408,30.8914837 C23.736662,31.1980989 23.3020471,30.925552 23.3020471,30.2782532 C23.3020471,29.6309544 23.7032301,28.8473822 24.2381408,28.540767 L26.5115113,27.1780326 C27.01299,26.8714174 27.01299,26.360392 26.5115113,26.0537768 L16.8162549,20.2962243 C16.3147762,19.9896091 15.4455463,19.9896091 14.9440675,20.2962243 L5.24881118,25.9856401 C4.74733241,26.2922553 4.74733241,26.8032807 5.24881118,27.1098959 L7.58904547,28.5066986 C8.09052425,28.8133138 8.52513918,29.5968861 8.52513918,30.2441849 C8.52513918,30.8914837 8.09052425,31.1640305 7.58904547,30.8914837 L2.03934702,27.689058 C1.53786825,27.3824428 1.10325331,26.5988706 1.10325331,25.9175034 L1.10325331,19.6489255 C1.10325331,18.9675583 1.53786825,18.6609431 2.03934702,18.9675583 L2.30680237,19.1379001 C2.80828114,19.4445154 3.24289608,20.2280876 3.24289608,20.9094548 L3.24289608,23.4645816 C3.24289608,24.1459488 3.67751102,24.452564 4.1789898,24.1459488 L13.907678,18.456533 C14.4091568,18.1499178 14.8437718,17.3663455 14.8437718,16.6849784 L14.8437718,5.40835184 C14.8437718,4.72698468 14.4091568,4.42036946 13.907678,4.72698468 L11.5674438,6.089719 C11.065965,6.39633423 10.1967351,6.39633423 9.69525633,6.12378736 L9.4612329,5.98751393 C8.92632221,5.71496706 8.92632221,5.20394169 9.4612329,4.89732647 L14.9774994,1.59269574 C15.4789782,1.28608052 16.3482081,1.28608052 16.8496869,1.59269574 L22.3325215,4.82918975 C22.8340002,5.13580498 22.8674322,5.64683035 22.3325215,5.98751393 L22.098498,6.12378736 C21.5970193,6.46447094 20.7612213,6.46447094 20.2597425,6.15785572 L17.8526444,4.69291632 C17.3511656,4.3863011 16.9165507,4.69291632 16.9165507,5.37428348 L16.9165507,16.6168416 C16.9165507,17.2982088 17.3511656,18.081781 17.8526444,18.3883963 L27.6481965,24.1459488 C28.1496753,24.452564 28.5842902,24.1459488 28.5842902,23.4645816 L28.5842902,20.9094548 L28.5842902,20.9094548 Z" id="Shape" fill="#B6BD00"></path>
            <g transform="translate(41.297537, -0.000000)" fill="#424242">
                <g transform="translate(15.462566, 25.610876)">
                    <polygon id="XMLID_17_" points="0.268914194 10.2443503 1.88239936 1.61752899 2.89082759 1.61752899 1.27734242 10.2443503"></polygon>
                    <path d="M7.1934547,9.94106357 C6.75646913,10.1769532 6.05056937,10.4128429 5.27744106,10.4128429 C3.76479872,10.4128429 3.09251323,9.3344902 3.09251323,8.0202479 C3.09251323,6.23422631 4.36985566,4.24601359 6.25225502,4.24601359 C7.36152607,4.24601359 7.93296873,4.91998401 7.93296873,5.76244702 C7.93296873,7.31257897 6.21864074,7.71696122 4.10094146,7.68326269 C4.06732719,7.95285086 4.10094146,8.49202719 4.23539856,8.79531387 C4.47069848,9.3344902 4.94129832,9.57037985 5.51274098,9.57037985 C6.18502647,9.57037985 6.72285486,9.36818872 7.0589976,9.1659976 L7.1934547,9.94106357 Z M6.95815478,5.76244702 C6.95815478,5.29066773 6.58839776,5.02107957 6.08418365,5.02107957 C5.14298397,5.02107957 4.43708421,5.96463814 4.20178429,6.8744982 C5.7480409,6.90819672 6.95815478,6.7060056 6.95815478,5.76244702 L6.95815478,5.76244702 Z" id="Shape"></path>
                    <path d="M12.2692101,10.2443503 C12.2692101,9.90736505 12.3364387,9.3344902 12.4036672,8.72791683 L12.3700529,8.72791683 C11.7313817,9.94106357 10.9246391,10.3791443 10.1178966,10.3791443 C9.07585406,10.3791443 8.47079712,9.53668133 8.47079712,8.42463015 C8.47079712,6.36902039 9.94982519,4.21231507 12.4708958,4.21231507 C13.0087242,4.21231507 13.6473954,4.31341064 14.0171524,4.44820472 L13.4457097,7.51477009 C13.2440241,8.52572571 13.1767955,9.57037985 13.2104098,10.2443503 L12.2692101,10.2443503 Z M12.9078813,5.12217513 C12.7734242,5.08847661 12.5717386,5.05477809 12.2355958,5.05477809 C10.7565678,5.05477809 9.51283962,6.63860856 9.51283962,8.28983607 C9.51283962,8.96380648 9.74813954,9.60407837 10.4876536,9.60407837 C11.3280104,9.60407837 12.3028244,8.49202719 12.5717386,6.94189524 L12.9078813,5.12217513 Z" id="Shape"></path>
                    <path d="M14.7230521,9.23339464 C14.9919663,9.40188725 15.4961804,9.60407837 15.9667803,9.60407837 C16.6390658,9.60407837 17.0760513,9.1659976 17.0760513,8.62682127 C17.0760513,8.15504198 16.8743657,7.88545382 16.2693088,7.54846861 C15.5970233,7.17778489 15.2272663,6.67230708 15.2272663,6.06573371 C15.2272663,5.02107957 16.1012374,4.24601359 17.3449655,4.24601359 C17.8491796,4.24601359 18.3197795,4.38080768 18.5550794,4.54930028 L18.2861652,5.32436625 C18.0844796,5.18957217 17.7147226,5.05477809 17.277737,5.05477809 C16.67268,5.05477809 16.2356945,5.45916034 16.2356945,5.93093962 C16.2356945,6.36902039 16.5046087,6.63860856 17.0424371,6.90819672 C17.6811083,7.27888045 18.1180938,7.78435826 18.1180938,8.45832867 C18.1180938,9.70517393 17.1432799,10.4128429 15.8995517,10.4128429 C15.2944948,10.4128429 14.7230521,10.2106517 14.4541379,10.0084606 L14.7230521,9.23339464 Z" id="XMLID_12_"></path>
                    <polygon id="XMLID_11_" points="19.1265221 10.2443503 20.2021788 4.34710916 21.2106071 4.34710916 20.101336 10.2443503"></polygon>
                    <path d="M21.0425357,2.89807277 C20.3366359,2.89807277 19.8324218,2.32519792 19.8324218,1.55013195 C19.8660361,0.707668932 20.471093,0.0673970412 21.2442214,0.0673970412 C22.0173497,0.0673970412 22.5215638,0.640271891 22.5215638,1.41533786 C22.4879495,2.2914994 21.8828926,2.89807277 21.0425357,2.89807277 L21.0425357,2.89807277 Z" id="XMLID_10_"></path>
                    <path d="M21.1097643,2.15670532 C20.7736215,2.15670532 20.5383216,1.88711715 20.5383216,1.48273491 C20.5383216,1.07835266 20.8408501,0.775065974 21.2106071,0.775065974 C21.5803641,0.775065974 21.815664,1.04465414 21.815664,1.44903639 C21.815664,1.88711715 21.5131355,2.15670532 21.1097643,2.15670532 L21.1097643,2.15670532 Z" id="XMLID_9_"></path>
                    <path d="M21.8492783,10.2443503 L22.6224066,6.06573371 C22.7568637,5.39176329 22.8240922,4.85258697 22.8913208,4.34710916 L23.7989062,4.34710916 L23.6308348,5.49285886 L23.6644491,5.49285886 C24.2022775,4.65039584 24.9754058,4.21231507 25.8157627,4.21231507 C26.4880481,4.21231507 27.2611764,4.61669732 27.2611764,5.82984406 C27.2611764,6.09943223 27.2275622,6.47011595 27.1603336,6.77340264 L26.5216624,10.2106517 L25.5468485,10.2106517 L26.1855197,6.80710116 C26.2191339,6.57121152 26.2527482,6.30162335 26.2527482,6.06573371 C26.2527482,5.49285886 26.0174483,5.05477809 25.3451628,5.05477809 C24.6392631,5.05477809 23.6308348,5.93093962 23.3619206,7.37997601 L22.8240922,10.2443503 L21.8492783,10.2443503 L21.8492783,10.2443503 Z" id="XMLID_8_"></path>
                    <path d="M28.303219,11.5922911 C28.6393617,11.8281807 29.2444186,11.9966733 29.8158613,11.9966733 C30.7906752,11.9966733 31.5638036,11.4911955 31.8999463,9.90736505 L32.1016319,9.03120352 L32.0680177,9.03120352 C31.5638036,9.87366653 30.8579038,10.2780488 30.0511612,10.2780488 C28.8746616,10.2780488 28.2696047,9.26709316 28.2696047,8.22243902 C28.2696047,6.20052779 29.7150185,4.24601359 31.9335606,4.24601359 C32.6058461,4.24601359 33.3453601,4.44820472 33.7823457,4.65039584 L32.8747603,9.53668133 C32.6394603,10.7835266 32.3033176,11.6596881 31.7318749,12.1651659 C31.1604323,12.6706437 30.387304,12.8054378 29.7150185,12.8054378 C29.0091187,12.8054378 28.3368332,12.6369452 27.9670762,12.4010556 L28.303219,11.5922911 Z M32.7403032,5.22327069 C32.5386175,5.12217513 32.2024748,5.02107957 31.7991035,5.02107957 C30.3536897,5.02107957 29.3452615,6.57121152 29.3452615,8.0202479 C29.3452615,8.66051979 29.5805614,9.43558577 30.4545325,9.43558577 C31.2948894,9.43558577 32.1688605,8.32353459 32.3705461,7.17778489 L32.7403032,5.22327069 Z" id="Shape"></path>
                </g>
                <g>
                    <path d="M11.2271676,25.6782727 C11.2607819,24.6673171 11.3616247,23.4204718 11.4288533,22.1736265 L11.3616247,22.1736265 C9.71452527,25.1053978 7.49598317,26.0826549 5.47912671,26.0826549 C2.3529992,26.0826549 0.23529992,23.6226629 0.23529992,19.9495242 C0.23529992,13.984886 4.13455574,7.61586565 12.6389671,7.61586565 C14.7230521,7.61586565 16.9415942,8.0202479 18.3533938,8.49202719 L16.6054515,17.7591204 C16.1684659,20.0506198 15.8323232,23.5215674 15.8995517,25.7119712 L11.2271676,25.7119712 L11.2271676,25.6782727 Z M12.6389671,11.6933866 C12.2355958,11.6259896 11.8322246,11.5585926 11.2943962,11.5585926 C8.00019728,11.5585926 5.57996953,15.6698121 5.57996953,18.9722671 C5.57996953,20.7245902 6.25225502,21.9040384 7.66405454,21.9040384 C9.17669688,21.9040384 11.1263248,20.1180168 11.9330674,15.8046062 L12.6389671,11.6933866 Z" id="Shape"></path>
                    <path d="M27.9334619,0 L25.8829912,10.1432547 L25.9502198,10.1432547 C27.2275622,8.59312275 29.1771901,7.61586565 31.2948894,7.61586565 C34.925231,7.61586565 36.5387162,10.6487325 36.5387162,13.8163934 C36.5387162,19.5451419 32.841146,26.1163535 25.0426343,26.1163535 C20.9416929,26.1163535 18.8576079,24.2966333 18.8576079,21.1626709 C18.8576079,20.0843183 19.0256792,19.0059656 19.2609792,17.927613 L22.790478,0 L27.9334619,0 Z M24.3703489,18.2308996 C24.269506,18.8037745 24.1686632,19.4777449 24.2022775,20.1854138 C24.2358918,21.4659576 24.9417915,22.139928 26.1519054,22.139928 C29.1435758,22.139928 31.2276608,17.9613115 31.2276608,14.8610476 C31.2276608,13.1087245 30.5217611,11.8281807 28.9418902,11.8281807 C27.0931051,11.8281807 25.2779343,13.7152979 24.6728773,16.7818633 L24.3703489,18.2308996 Z" id="Shape"></path>
                    <path d="M50.3205686,25.1390964 C49.2112976,25.6782727 47.4633553,26.0826549 45.3792703,26.0826549 C41.0766432,26.0826549 38.0849728,23.4204718 38.0849728,18.8037745 C38.0849728,12.5021511 42.7909712,7.58216713 49.4129832,7.58216713 C50.8920113,7.58216713 52.4382679,7.8517553 53.681996,8.49202719 L51.6987539,12.1651659 C51.0936969,11.8955778 50.3877972,11.7270852 49.3457547,11.7270852 C45.715413,11.7270852 43.4632567,14.8610476 43.4632567,18.1972011 C43.4632567,20.6571931 44.975899,21.9040384 46.8582984,21.9040384 C48.3373264,21.9040384 49.4129832,21.5333547 50.2869543,21.1963695 L50.3205686,25.1390964 Z" id="XMLID_1_"></path>
                </g>
            </g>
        </g>
    </g>
</svg>