<?xml version="1.0" encoding="UTF-8"?>
<svg width="42px" height="42px" viewBox="0 0 42 42" version="1.1" xmlns="http://www.w3.org/2000/svg" xmlns:xlink="http://www.w3.org/1999/xlink">
    <title>edificio</title>
    <defs>
        <circle id="path-1" cx="21" cy="21" r="21"></circle>
    </defs>
    <g id="Desktop" stroke="none" stroke-width="1" fill="none" fill-rule="evenodd">
        <g id="edificio">
            <mask id="mask-2" fill="white">
                <use xlink:href="#path-1"></use>
            </mask>
            <use id="Mask" fill="#D7ECE9" xlink:href="#path-1"></use>
            <polygon id="Path-10" fill="#BCE7E0" mask="url(#mask-2)" points="8.05260274 45 8.05260274 25.5 13.362864 25.5 13.362864 10.3424515 15.8378378 10.3424515 15.8378378 6.81450021 27.8378378 6.81450021 27.8378378 10.3424515 29.1733506 10.3424515 29.1733506 21 34.8627656 21 34.8627656 45"></polygon>
            <path d="M27.5603705,6 C27.9784917,6 28.3174249,6.34102148 28.3174249,6.76171875 L28.3174249,6.76171875 L28.3174249,9.50063086 L29.9304049,9.50063086 C30.3485261,9.50063086 30.6874593,9.84165234 30.6874593,10.2623496 L30.6874593,10.2623496 L30.6874593,19.7069766 L35.6198199,19.7069766 C36.0379411,19.7069766 36.3768743,20.047998 36.3768743,20.4686953 L36.3768743,20.4686953 L36.3768743,43.4765625 L37.0807835,43.4765625 C37.4989046,43.4765625 37.8378378,43.817584 37.8378378,44.2382812 C37.8378378,44.6589785 37.4989046,45 37.0807835,45 L37.0807835,45 L5.59489221,45 C5.17677108,45 4.83783784,44.6589785 4.83783784,44.2382812 C4.83783784,43.817584 5.17677108,43.4765625 5.59489221,43.4765625 L5.59489221,43.4765625 L7.62402504,43.4765625 L7.62402504,25.6841836 C7.62402504,25.2634863 7.96295828,24.9224648 8.38107941,24.9224648 L8.38107941,24.9224648 L12.5348853,24.9224648 L12.5348853,10.2623496 C12.5348853,9.84165234 12.8738186,9.50063086 13.2919397,9.50063086 L13.2919397,9.50063086 L14.904844,9.50063086 L14.904844,6.76171875 C14.904844,6.34102148 15.2437773,6 15.6618984,6 L15.6618984,6 Z M12.5348853,26.4459023 L9.13813378,26.4459023 L9.13813378,43.4765625 L12.5348853,43.4765625 L12.5348853,26.4459023 Z M29.1733506,11.0240684 L14.0489941,11.0240684 L14.0489941,43.4765625 L17.817535,43.4765625 L17.817535,38.4508945 C17.817535,38.0301973 18.1564683,37.6891758 18.5745894,37.6891758 L18.5745894,37.6891758 L24.6476795,37.6891758 C25.0658007,37.6891758 25.4047339,38.0301973 25.4047339,38.4508945 L25.4047339,38.4508945 L25.4047339,43.4765625 L29.1733506,43.4765625 L29.1733506,11.0240684 Z M23.8907009,39.2126133 L19.3317195,39.2126133 L19.3317195,43.4765625 L23.8907009,43.4765625 L23.8907009,39.2126133 Z M34.8627656,21.2304141 L30.6874593,21.2304141 L30.6874593,43.4765625 L34.8627656,43.4765625 L34.8627656,21.2304141 Z M27.0810304,29 C27.4990151,29 27.8378378,29.3384283 27.8378378,29.7559265 L27.8378378,29.7559265 L27.8378378,33.2440735 C27.8378378,33.6615717 27.4990151,34 27.0810304,34 L27.0810304,34 L23.5946453,34 C23.1766605,34 22.8378378,33.6615717 22.8378378,33.2440735 L22.8378378,33.2440735 L22.8378378,29.7559265 C22.8378378,29.3384283 23.1766605,29 23.5946453,29 L23.5946453,29 Z M20.0810304,29 C20.4990151,29 20.8378378,29.3384283 20.8378378,29.7559265 L20.8378378,29.7559265 L20.8378378,33.2440735 C20.8378378,33.6615717 20.4990151,34 20.0810304,34 L20.0810304,34 L16.5946453,34 C16.1766605,34 15.8378378,33.6615717 15.8378378,33.2440735 L15.8378378,33.2440735 L15.8378378,29.7559265 C15.8378378,29.3384283 16.1766605,29 16.5946453,29 L16.5946453,29 Z M26.3242229,30.5119285 L24.3514528,30.5119285 L24.3514528,32.4882227 L26.3242229,32.4882227 L26.3242229,30.5119285 Z M19.3242229,30.5119285 L17.3514528,30.5119285 L17.3514528,32.4882227 L19.3242229,32.4882227 L19.3242229,30.5119285 Z M27.0810304,21 C27.4990151,21 27.8378378,21.3384334 27.8378378,21.7559379 L27.8378378,21.7559379 L27.8378378,25.2440621 C27.8378378,25.6615666 27.4990151,26 27.0810304,26 L27.0810304,26 L23.5946453,26 C23.1766605,26 22.8378378,25.661491 22.8378378,25.2440621 L22.8378378,25.2440621 L22.8378378,21.7559379 C22.8378378,21.3384334 23.1766605,21 23.5946453,21 L23.5946453,21 Z M20.0810304,21 C20.4990151,21 20.8378378,21.3384334 20.8378378,21.7559379 L20.8378378,21.7559379 L20.8378378,25.2440621 C20.8378378,25.6615666 20.4990151,26 20.0810304,26 L20.0810304,26 L16.5946453,26 C16.1766605,26 15.8378378,25.661491 15.8378378,25.2440621 L15.8378378,25.2440621 L15.8378378,21.7559379 C15.8378378,21.3384334 16.1766605,21 16.5946453,21 L16.5946453,21 Z M26.3242229,22.5118002 L24.3514528,22.5118002 L24.3514528,24.4880486 L26.3242229,24.4880486 L26.3242229,22.5118002 Z M19.3242229,22.5118002 L17.3514528,22.5118002 L17.3514528,24.4880486 L19.3242229,24.4880486 L19.3242229,22.5118002 Z M27.0810304,14 C27.4990151,14 27.8378378,14.3384283 27.8378378,14.7559265 L27.8378378,14.7559265 L27.8378378,18.2440735 C27.8378378,18.6615717 27.4990151,19 27.0810304,19 L27.0810304,19 L23.5946453,19 C23.1766605,19 22.8378378,18.6615717 22.8378378,18.2440735 L22.8378378,18.2440735 L22.8378378,14.7559265 C22.8378378,14.3384283 23.1766605,14 23.5946453,14 L23.5946453,14 Z M20.0810304,14 C20.4990151,14 20.8378378,14.3384283 20.8378378,14.7559265 L20.8378378,14.7559265 L20.8378378,18.2440735 C20.8378378,18.6615717 20.4990151,19 20.0810304,19 L20.0810304,19 L16.5946453,19 C16.1766605,19 15.8378378,18.6615717 15.8378378,18.2440735 L15.8378378,18.2440735 L15.8378378,14.7559265 C15.8378378,14.3384283 16.1766605,14 16.5946453,14 L16.5946453,14 Z M26.3242229,15.5119285 L24.3514528,15.5119285 L24.3514528,17.4882227 L26.3242229,17.4882227 L26.3242229,15.5119285 Z M19.3242229,15.5119285 L17.3514528,15.5119285 L17.3514528,17.4882227 L19.3242229,17.4882227 L19.3242229,15.5119285 Z M26.8032405,7.5234375 L16.4189528,7.5234375 L16.4189528,9.50063086 L26.8032405,9.50063086 L26.8032405,7.5234375 Z" id="Combined-Shape" fill="#4B8178" fill-rule="nonzero" mask="url(#mask-2)"></path>
        </g>
    </g>
</svg>