<?xml version="1.0" encoding="UTF-8"?>
<svg width="16px" height="13px" viewBox="0 0 16 13" version="1.1" xmlns="http://www.w3.org/2000/svg" xmlns:xlink="http://www.w3.org/1999/xlink">
    <title>email</title>
    <defs>
        <filter id="filter-1">
            <feColorMatrix in="SourceGraphic" type="matrix" values="0 0 0 0 0.501961 0 0 0 0 0.525490 0 0 0 0 0.584314 0 0 0 1.000000 0"></feColorMatrix>
        </filter>
    </defs>
    <g id="Symbols" stroke="none" stroke-width="1" fill="none" fill-rule="evenodd">
        <g id="TopMenu" transform="translate(-431.000000, -9.000000)">
            <g id="Group-22" transform="translate(431.000000, 8.000000)">
                <g filter="url(#filter-1)" id="email">
                    <g transform="translate(0.000000, 1.000000)">
                        <path d="M14.59375,0 L1.40625,0 C0.6318125,0 0,0.627013721 0,1.3970894 L0,10.7110187 C0,11.4784865 0.629,12.1081081 1.40625,12.1081081 L14.59375,12.1081081 C15.36625,12.1081081 16,11.4832055 16,10.7110187 L16,1.3970894 C16,0.629621622 15.371,0 14.59375,0 Z M14.3995625,0.931392931 L8.0298125,7.25968011 L1.60496875,0.931392931 L14.3995625,0.931392931 Z M0.9375,10.5181583 L0.9375,1.58551019 L5.45246875,6.03260097 L0.9375,10.5181583 Z M1.60040625,11.1767152 L6.11821875,6.68833264 L7.70125,8.2475465 C7.8845,8.42805045 8.18021875,8.42746057 8.36271875,8.24611836 L9.90625,6.712642 L14.3995938,11.1767152 L1.60040625,11.1767152 Z M15.0625,10.5181272 L10.5691562,6.05405405 L15.0625,1.58994983 L15.0625,10.5181272 Z" id="Shape" fill="#000000" fill-rule="nonzero"></path>
                    </g>
                </g>
            </g>
        </g>
    </g>
</svg>