<?xml version="1.0" encoding="UTF-8"?>
<svg width="103px" height="103px" viewBox="0 0 103 103" version="1.1" xmlns="http://www.w3.org/2000/svg" xmlns:xlink="http://www.w3.org/1999/xlink">
    <title>Group 14</title>
    <g id="Desktop" stroke="none" stroke-width="1" fill="none" fill-rule="evenodd">
        <g id="Group-14" transform="translate(51.500000, 51.500000) rotate(-90.000000) translate(-51.500000, -51.500000) ">
            <path d="M51.5,0 C79.9426646,0 103,23.0573354 103,51.5 C103,79.9426646 79.9426646,103 51.5,103 C23.0573354,103 0,79.9426646 0,51.5 C0,23.0573354 23.0573354,0 51.5,0 Z M51.5,22 C35.2075999,22 22,35.2075999 22,51.5 C22,67.7924001 35.2075999,81 51.5,81 C67.7924001,81 81,67.7924001 81,51.5 C81,35.2075999 67.7924001,22 51.5,22 Z" id="Combined-Shape" fill="#D8D8D8" opacity="0"></path>
            <g id="Group" transform="translate(45.000000, 0.000000)" stroke="#88C0B6" stroke-width="2">
                <path d="M8.00003977,1.02185195 L8.00082177,21.0362932 C15.9185362,21.4200221 23.0438802,24.8227576 28.2502081,30.1182588 C33.5533854,35.5122682 36.8655283,42.8699823 36.9959976,51.0008205 L56.9976816,51.000039 C56.8663535,37.2578665 51.2399475,24.8221626 42.2088924,15.7911076 C33.3990057,6.98122084 21.3491862,1.41126698 8.00003977,1.02185195 Z" id="Combined-Shape"></path>
                <path d="M29.9959976,58.0008205 L50.5616012,58.000017 L56.9984869,51.1072924 C56.8926062,37.3708028 51.2370066,24.9622531 42.2916521,15.9291991 C33.2509689,6.79988176 20.8485103,1.11592201 7.412629,1.00175289 L1.00001618,7.41803007 L1.00082177,28.0362932 C8.91853621,28.4200221 16.0438802,31.8227576 21.2502081,37.1182588 C26.5533854,42.5122682 29.8655283,49.8699823 29.9959976,58.0008205 Z" id="Path"></path>
                <line x1="37.2549281" y1="50.9144144" x2="30.1125278" y2="57.8699082" id="Path-9"></line>
                <line x1="8.25492814" y1="20.9144144" x2="1.11252784" y2="27.8699082" id="Path-9-Copy"></line>
            </g>
        </g>
    </g>
</svg>