<?xml version="1.0" encoding="UTF-8"?>
<svg width="140px" height="140px" viewBox="0 0 140 140" version="1.1" xmlns="http://www.w3.org/2000/svg" xmlns:xlink="http://www.w3.org/1999/xlink">
    <title>Group 29</title>
    <defs>
        <linearGradient x1="50%" y1="0%" x2="50%" y2="100%" id="linearGradient-1">
            <stop stop-color="#C3FCF2" offset="0%"></stop>
            <stop stop-color="#88C0B6" offset="100%"></stop>
        </linearGradient>
    </defs>
    <g id="Desktop" stroke="none" stroke-width="1" fill="none" fill-rule="evenodd">
        <g id="Group-29">
            <path d="M87.5,10.1036297 L113.121778,24.8963703 C123.950816,31.1485181 130.621778,42.7029638 130.621778,55.2072594 L130.621778,84.7927406 C130.621778,97.2970362 123.950816,108.851482 113.121778,115.10363 L87.5,129.89637 C76.6709623,136.148518 63.3290377,136.148518 52.5,129.89637 L26.8782217,115.10363 C16.049184,108.851482 9.37822174,97.2970362 9.37822174,84.7927406 L9.37822174,55.2072594 C9.37822174,42.7029638 16.049184,31.1485181 26.8782217,24.8963703 L52.5,10.1036297 C63.3290377,3.85148189 76.6709623,3.85148189 87.5,10.1036297 Z" id="Polygon" fill="url(#linearGradient-1)" opacity="0.3"></path>
            <circle id="Oval" fill-opacity="0.2" fill="#4B8178" cx="70.5" cy="72.5" r="18.5"></circle>
            <path d="M74.6437314,40 C74.8635177,40 75.0743382,40.0866611 75.2297505,40.2412398 C75.3851629,40.3958185 75.472417,40.6055081 75.4722913,40.8241154 L75.4722913,40.8241154 L75.4722913,44.7082883 C75.4722913,45.1634346 75.1013324,45.5324036 74.6437314,45.5324036 L74.6437314,45.5324036 L72.9629386,45.5324036 L72.9629386,48.0513708 C75.2960037,48.3172052 77.5771771,48.9223608 79.7334563,49.8474711 L79.7334563,49.8474711 L82.1249168,45.707587 C82.3528111,45.3129217 82.8592121,45.1767223 83.2560194,45.4033707 L83.2560194,45.4033707 L86.6426987,47.3383933 C87.0393204,47.5652268 87.1760319,48.068873 86.9480822,48.4634284 L86.9480822,48.4634284 L84.552834,52.6075509 C92.948401,58.7786935 96.4142627,69.6121582 93.1480717,79.4742327 C89.8818807,89.3363071 80.6211875,96 70.1818182,96 C59.7424488,96 50.4817556,89.3363071 47.2155646,79.4742327 C43.9493736,69.6121582 47.4152354,58.7786935 55.8108024,52.6075509 L55.8108024,52.6075509 L53.4155542,48.4610738 C53.1876045,48.0665184 53.324316,47.5628722 53.7209377,47.3360387 L53.7209377,47.3360387 L57.107617,45.4010161 C57.298142,45.2920479 57.5244037,45.262882 57.7365619,45.3199431 C57.94872,45.3770042 58.1293703,45.5156113 58.2387195,45.7052324 L58.2387195,45.7052324 L60.63018,49.8451165 C62.7864593,48.9200061 65.0676326,48.3148506 67.4006978,48.0490162 L67.4006978,48.0490162 L67.4006978,45.5324036 L65.7199049,45.5324036 C65.262304,45.5324036 64.8913451,45.1634346 64.8913451,44.7082883 L64.8913451,44.7082883 L64.8913451,40.8241154 C64.8912194,40.6055081 64.9784735,40.3958185 65.1338858,40.2412398 C65.2892982,40.0866611 65.5001187,40 65.7199049,40 L65.7199049,40 Z M78.8013627,51.2387725 C70.385073,47.7711771 60.6974093,49.6877047 54.2557503,56.0946744 C47.8140913,62.501644 45.8870238,72.1373003 49.3731437,80.5085158 C52.8592636,88.8797313 61.0720323,94.3379221 70.1818182,94.3379221 C82.6149563,94.3239085 92.6905656,84.302558 92.7049161,71.9361147 C92.7049161,62.8751961 87.2176524,54.706368 78.8013627,51.2387725 Z M60.4031711,56.0993635 C66.1541799,52.7526416 73.254955,52.7334377 79.023981,56.049004 C79.0521401,56.0595929 79.0796428,56.0718515 79.1063427,56.0857146 C79.1309,56.1013574 79.154476,56.1184898 79.1769385,56.1370154 C81.9115143,57.7431446 84.195312,60.0150151 85.8157643,62.7411697 C85.832507,62.7615469 85.8482148,62.7827529 85.8628281,62.8047074 C85.8769973,62.8313927 85.8895698,62.8588956 85.9004792,62.8870711 C89.2472415,68.6384753 89.2666241,75.7396722 85.9513082,81.5092613 C85.9407569,81.5375109 85.928336,81.5650263 85.9141277,81.591625 C85.9028324,81.6113922 85.8868307,81.6250411 85.8741234,81.6433964 C84.2668818,84.3859785 81.9905525,86.6762873 79.2578883,88.3002634 C79.2367095,88.3167362 79.2150602,88.3355622 79.1952934,88.3473284 L79.1952934,88.3473284 L79.1336397,88.3732141 C73.3727465,91.7352725 66.252788,91.7555644 60.4728256,88.4263975 C60.4516469,88.4160432 60.4290562,88.4113367 60.4083482,88.3995705 C60.3833991,88.3834998 60.3593597,88.3660591 60.3363405,88.3473284 C57.5969817,86.7380852 55.3101728,84.4607759 53.6895138,81.7281133 C53.6782185,81.7121112 53.6626874,81.698933 53.6523334,81.6810484 C53.6382506,81.6541595 53.6256807,81.626505 53.6146823,81.598214 C50.2679067,75.8469819 50.248524,68.7459121 53.5638533,62.9764945 C53.5826064,62.9203505 53.6123662,62.8685096 53.6513921,62.824004 C55.2580239,60.0893044 57.5303092,57.8054702 60.2568026,56.1850217 C60.276846,56.1682694 60.2977386,56.1525603 60.3193975,56.1379567 C60.3465926,56.1235645 60.3745594,56.1106805 60.4031711,56.0993635 Z M70.5830806,55.2441933 L70.5830806,57.3451728 C70.5830806,57.8000548 70.2143346,58.1688095 69.7594633,58.1688095 C69.304592,58.1688095 68.935846,57.8000548 68.935846,57.3451728 L68.935846,57.3451728 L68.935846,55.2441933 C66.4705404,55.3610116 64.0608028,56.016797 61.8762694,57.1653847 L61.8762694,57.1653847 L62.9361472,58.9736202 C63.1636062,59.3659054 63.0311956,59.8682635 62.6399282,60.0974583 C62.2486608,60.3266531 61.7457346,60.1964597 61.5148191,59.8061992 L61.5148191,59.8061992 L60.4563533,58.0003169 C58.4616352,59.3078651 56.7615691,61.0171082 55.464762,63.0188529 L55.464762,63.0188529 L57.2757787,64.0669895 C57.6586502,64.2995703 57.7854232,64.7955227 57.5611278,65.183312 C57.3368324,65.5711013 56.8437299,65.7085039 56.4512202,65.4925869 L56.4512202,65.4925869 L54.6373796,64.4435091 C53.5159315,66.6056435 52.8751884,68.9846853 52.7590616,71.4175939 L52.7590616,71.4175939 L54.8604622,71.4175939 C55.3153335,71.4175939 55.6840795,71.7863486 55.6840795,72.2412306 C55.6840795,72.6961126 55.3153335,73.0648673 54.8604622,73.0648673 L54.8604622,73.0648673 L52.7590616,73.0648673 C52.8762958,75.5302238 53.5322111,77.9399621 54.6806784,80.1246104 L54.6806784,80.1246104 L56.4888712,79.0647076 C56.8811472,78.8372433 57.3834934,78.969657 57.6126829,79.3609336 C57.8418723,79.7522102 57.7116819,80.2551483 57.3214306,80.4860692 L57.3214306,80.4860692 L55.5155909,81.5440894 C56.8235851,83.5393596 58.533444,85.2398012 60.5358912,86.5367396 L60.5358912,86.5367396 L61.584003,84.7252096 C61.814864,84.3382149 62.3138602,84.2085973 62.7038702,84.4343166 C63.0938802,84.6600359 63.2300941,85.1572829 63.0095668,85.5502582 L63.0095668,85.5502582 L61.9600431,87.3636709 C64.1213949,88.4854998 66.4997439,89.1267412 68.9320809,89.2434451 L68.9320809,89.2434451 L68.9320809,87.1419949 C68.9320809,86.687113 69.3008269,86.3183583 69.7556982,86.3183583 C70.2105694,86.3183583 70.5793155,86.687113 70.5793155,87.1419949 L70.5793155,87.1419949 L70.5793155,89.2434451 C73.044578,89.1263539 75.4542575,88.4705843 77.638892,87.3222537 L77.638892,87.3222537 L76.5790143,85.5140182 C76.3489794,85.12152 76.4806744,84.6168529 76.8731633,84.3868126 C77.2656522,84.1567722 77.7703075,84.2884703 78.0003424,84.6809685 L78.0003424,84.6809685 L79.0588082,86.4849682 C81.053696,85.1770422 82.7537786,83.4673015 84.0503995,81.4650202 L84.0503995,81.4650202 L82.2393828,80.4168837 C81.8455943,80.1890528 81.7110547,79.6851232 81.9388802,79.2913254 C82.1667057,78.8975276 82.6706234,78.7629848 83.064412,78.9908156 L83.064412,78.9908156 L84.8777819,80.0403641 C85.9989686,77.878801 86.6397042,75.5004294 86.7560999,73.0681618 L86.7560999,73.0681618 L84.6546993,73.0681618 C84.199828,73.0681618 83.831082,72.6994071 83.831082,72.2445252 C83.831082,71.7896432 84.199828,71.4208885 84.6546993,71.4208885 L84.6546993,71.4208885 L86.7560999,71.4208885 C86.6387692,68.9556061 85.9830291,66.5459213 84.8349538,64.3611454 L84.8349538,64.3611454 L83.0262903,65.4210482 C82.7723055,65.5713369 82.4573243,65.5742444 82.2006087,65.4286698 C81.943893,65.2830951 81.7846842,65.0112907 81.7832638,64.7161704 C81.7818433,64.4210501 81.9384284,64.1477257 82.1937309,63.9996866 L82.1937309,63.9996866 L83.9995705,62.9416664 C82.6916786,60.9460558 80.9818128,59.2452867 78.9792703,57.9480748 L78.9792703,57.9480748 L77.9311585,59.7614875 C77.7858826,60.0203664 77.5125399,60.1810372 77.2156911,60.1820392 C76.9188422,60.1830412 76.6444212,60.0242193 76.497401,59.766327 C76.3503808,59.5084347 76.3535112,59.1913779 76.5055947,58.9364389 L76.5055947,58.9364389 L77.557001,57.1220849 C75.3948803,56.0007739 73.0158965,55.3601767 70.5830806,55.2441933 L70.5830806,55.2441933 Z M70.1115746,59.5151515 C70.5646605,59.5151515 70.9319591,59.8824589 70.9319591,60.3355555 L70.9319591,60.3355555 L70.9319591,68.2344053 C72.3434794,68.5543124 73.4456669,69.6567084 73.7653329,71.0683151 L73.7653329,71.0683151 L81.664464,71.0683151 C82.1175498,71.0683151 82.4848485,71.4356225 82.4848485,71.8887191 C82.4845899,72.3417086 82.1174427,72.7088645 81.664464,72.7091232 L81.664464,72.7091232 L73.7653329,72.7091232 C73.3592912,74.5213555 71.6868409,75.7625298 69.8347347,75.6261352 C67.9826285,75.4897405 66.5100329,74.0169556 66.3738355,72.1647911 C66.2376382,70.3126267 67.4789582,68.6402668 69.2911901,68.2344053 L69.2911901,68.2344053 L69.2911901,60.3355555 C69.2911901,59.8824589 69.6584887,59.5151515 70.1115746,59.5151515 Z M70.9175398,69.941913 C70.1302596,69.6157006 69.2239963,69.7959194 68.6214104,70.3985196 C68.0188246,71.0011198 67.83861,71.9074046 68.1648147,72.6947034 C68.4910194,73.4820022 69.2593895,73.9952374 70.1115746,73.9950479 C71.2740909,73.9932408 72.2160463,73.0512631 72.2178533,71.8887191 C72.2180429,71.0365138 71.7048199,70.2681255 70.9175398,69.941913 Z M83.1490168,47.2390286 L81.2343333,50.5566812 C81.9012846,50.900141 82.550402,51.2724841 83.1816857,51.6737105 L83.1816857,51.6737105 L85.0982631,48.355587 L83.1490168,47.2390286 Z M57.2146196,47.2418541 L55.2653733,48.355587 L57.1819506,51.6737105 C57.812603,51.2718562 58.4617205,50.8995131 59.129303,50.5566812 L59.129303,50.5566812 L57.2146196,47.2418541 Z M71.3058188,45.5324036 L69.0578175,45.5324036 L69.0578175,47.9133903 C69.4304327,47.8959662 69.803048,47.884664 70.1818182,47.884664 C70.5605884,47.884664 70.9332036,47.8964371 71.3058188,47.9138613 L71.3058188,47.9138613 L71.3058188,45.5324036 Z M73.8151716,41.6482307 L66.5484648,41.6482307 L66.5484648,43.8841731 L73.8151716,43.8841731 L73.8151716,41.6482307 Z" id="Combined-Shape" fill="#005248" fill-rule="nonzero"></path>
        </g>
    </g>
</svg>