<?xml version="1.0" encoding="UTF-8"?>
<svg width="19px" height="18px" viewBox="0 0 19 18" version="1.1" xmlns="http://www.w3.org/2000/svg" xmlns:xlink="http://www.w3.org/1999/xlink">
    <title>Combined Shape</title>
    <g id="Desktop" stroke="none" stroke-width="1" fill="none" fill-rule="evenodd">
        <path d="M10.3433974,0.000999067404 C12.3791117,0.0332490674 14.2898974,0.855070496 15.723826,2.31499907 C17.1574688,3.77464192 17.9452546,5.69989192 17.9421117,7.7360705 C17.9402903,8.90710621 17.6697546,10.0709634 17.157826,11.1174634 L17.157826,11.1174634 L18.2198617,14.2082848 C18.3692903,14.6432134 18.2601474,15.1153919 17.9350046,15.4405705 C17.7061117,15.6694991 17.4043974,15.7913562 17.0941117,15.7913562 C16.963576,15.7913562 16.8315046,15.7697848 16.7027188,15.7255348 L16.7027188,15.7255348 L13.6118617,14.6634634 C12.6219688,15.1477134 11.5270046,15.4156062 10.420326,15.4447491 C9.3568617,16.8971419 7.68007599,17.7554634 5.87614742,17.7555348 L5.87614742,17.7555348 C5.03550456,17.7542134 4.20868313,17.5669991 3.46100456,17.2122491 L3.46100456,17.2122491 L1.3321117,17.9437848 C1.22371885,17.9810348 1.11257599,17.9991776 1.00271885,17.9991776 C0.741611704,17.9991776 0.487718847,17.8966419 0.295147418,17.7040348 C0.0215045609,17.4303919 -0.070352582,17.0330348 0.055397418,16.6670705 L0.055397418,16.6670705 L0.786933132,14.5382134 C0.432183132,13.7905348 0.244968847,12.9637134 0.243647418,12.1319276 C0.240897418,10.3544634 1.07764742,8.69035621 2.49529028,7.62299907 C2.52054028,5.59671335 3.31832599,3.70053478 4.75668313,2.26221335 C6.2483617,0.770570496 8.23250456,-0.0323580755 10.3433974,0.000999067404 Z M2.59657599,8.9830705 C1.79096885,9.8235705 1.33029028,10.9460348 1.3321117,12.1302848 C1.33325456,12.8665348 1.51475456,13.5976062 1.85696885,14.2444634 C1.92732599,14.3774276 1.93946885,14.5335705 1.8906117,14.6758205 L1.8906117,14.6758205 L1.14050456,16.8587491 L3.32346885,16.1086419 C3.46568313,16.0597848 3.62182599,16.0719634 3.75482599,16.1422848 C4.40164742,16.4844991 5.13275456,16.6659991 5.86896885,16.6671062 L5.86896885,16.6671062 C7.08171885,16.6671062 8.21729028,16.1912848 9.05971885,15.3609634 C7.46429028,15.1204634 5.98564742,14.3848205 4.80932599,13.2294276 C3.62425456,12.0654276 2.85971885,10.5872134 2.59657599,8.9830705 Z M10.3261831,1.08924907 C8.51268313,1.06067764 6.80779028,1.75035621 5.52632599,3.0318205 C4.2448617,4.31328478 3.55493313,6.01789192 3.58368313,7.83164192 C3.64075456,11.4330348 6.61621885,14.3592491 10.2184688,14.3592491 L10.2184688,14.3592491 L10.2287546,14.3592491 C11.303826,14.3576062 12.3713974,14.0925348 13.3161474,13.5927491 C13.395326,13.5508205 13.482826,13.5295705 13.5706474,13.5295705 C13.6302188,13.5295705 13.6900046,13.5393562 13.7474688,13.5591062 L13.7474688,13.5591062 L17.056326,14.6961062 C17.0976117,14.7103205 17.134326,14.7018919 17.1652903,14.6709276 C17.1962188,14.6400348 17.2047188,14.6033562 17.1905403,14.5619276 L17.1905403,14.5619276 L16.053576,11.2530705 C16.0047188,11.1108205 16.0168617,10.9546776 16.0872188,10.8217134 C16.5869688,9.87703478 16.8520046,8.80942764 16.8536831,7.73435621 C16.8592546,4.12739192 13.9310403,1.14642764 10.3261831,1.08924907 Z M10.9644331,9.31574907 C11.2650046,9.31574907 11.5086117,9.55942764 11.5086117,9.85996335 C11.5086117,10.1604991 11.2649688,10.4041776 10.9643974,10.4041776 L10.9643974,10.4041776 L6.9761117,10.4041776 C6.67557599,10.4041776 6.43189742,10.1605348 6.43189742,9.85996335 C6.43189742,9.55942764 6.67554028,9.31574907 6.9761117,9.31574907 L6.9761117,9.31574907 Z M13.4604331,7.0775705 C13.7610046,7.0775705 14.0046474,7.32124907 14.0046474,7.62178478 C14.0046474,7.9223205 13.7610046,8.16599907 13.4604331,8.16599907 L13.4604331,8.16599907 L6.97614742,8.16599907 C6.6756117,8.16599907 6.43193313,7.9223205 6.43193313,7.62178478 C6.43193313,7.32124907 6.67557599,7.0775705 6.97614742,7.0775705 L6.97614742,7.0775705 Z M13.4604331,4.8393205 C13.7610046,4.8393205 14.0046474,5.08299907 14.0046474,5.38353478 C14.0046474,5.6840705 13.7610046,5.92774907 13.4604331,5.92774907 L13.4604331,5.92774907 L6.97614742,5.92774907 C6.6756117,5.92774907 6.43193313,5.68410621 6.43193313,5.38353478 C6.43193313,5.08299907 6.67557599,4.8393205 6.97614742,4.8393205 L6.97614742,4.8393205 Z" id="Combined-Shape" fill="#929BAC" fill-rule="nonzero"></path>
    </g>
</svg>