<?xml version="1.0" encoding="UTF-8"?>
<svg width="103px" height="103px" viewBox="0 0 103 103" version="1.1" xmlns="http://www.w3.org/2000/svg" xmlns:xlink="http://www.w3.org/1999/xlink">
    <title>Group 14</title>
    <g id="Desktop" stroke="none" stroke-width="1" fill="none" fill-rule="evenodd">
        <g id="Group-14" transform="translate(51.500000, 51.500000) rotate(-270.000000) translate(-51.500000, -51.500000) translate(0.000000, 0.000000)">
            <path d="M51.5,0 C79.9426646,0 103,23.0573354 103,51.5 C103,79.9426646 79.9426646,103 51.5,103 C23.0573354,103 0,79.9426646 0,51.5 C0,23.0573354 23.0573354,0 51.5,0 Z M51.5,22 C35.2075999,22 22,35.2075999 22,51.5 C22,67.7924001 35.2075999,81 51.5,81 C67.7924001,81 81,67.7924001 81,51.5 C81,35.2075999 67.7924001,22 51.5,22 Z" id="Combined-Shape" fill="#D8D8D8" opacity="0"></path>
            <path d="M53.0000398,1.02185195 L53.0008218,21.0362932 C60.9185362,21.4200221 68.0438802,24.8227576 73.2502081,30.1182588 C78.5533854,35.5122682 81.8655283,42.8699823 81.9959976,51.0008205 L101.997682,51.000039 C101.866354,37.2578665 96.2399475,24.8221626 87.2088924,15.7911076 C78.3990057,6.98122084 66.3491862,1.41126698 53.0000398,1.02185195 Z" id="Combined-Shape" stroke="#B4BD22" stroke-width="2"></path>
        </g>
    </g>
</svg>