<?xml version="1.0" encoding="UTF-8"?>
<svg width="104px" height="104px" viewBox="0 0 104 104" version="1.1" xmlns="http://www.w3.org/2000/svg" xmlns:xlink="http://www.w3.org/1999/xlink">
    <title>Group 14</title>
    <defs>
        <path d="M0.5,0.934997383 L0,0.930997383 C28.4426646,0.930997383 51.5,23.9883328 51.5,52.4309974 L51.496,52.9309974 L29.4958339,52.931857 C29.4986076,52.7652363 29.5,52.5982794 29.5,52.4309974 C29.5,36.3058793 16.5622255,23.2025404 0.500859583,22.9351635 L0.5,0.934997383 Z" id="path-1"></path>
    </defs>
    <g id="Desktop" stroke="none" stroke-width="1" fill="none" fill-rule="evenodd">
        <g id="Group-14" transform="translate(0.000000, 0.000000)">
            <path d="M51.5,1 C79.9426646,1 103,24.0573354 103,52.5 C103,80.9426646 79.9426646,104 51.5,104 C23.0573354,104 0,80.9426646 0,52.5 C0,24.0573354 23.0573354,1 51.5,1 Z M51.5,23 C35.2075999,23 22,36.2075999 22,52.5 C22,68.7924001 35.2075999,82 51.5,82 C67.7924001,82 81,68.7924001 81,52.5 C81,36.2075999 67.7924001,23 51.5,23 Z" id="Combined-Shape" fill="#D8D8D8" opacity="0"></path>
            <g id="Group-20" transform="translate(51.500000, 0.069003)">
                <mask id="mask-2" fill="white">
                    <use xlink:href="#path-1"></use>
                </mask>
                <g id="Mask"></g>
                <g mask="url(#mask-2)" stroke="#BCDE8D">
                    <g transform="translate(31.000000, 24.000000) rotate(-315.000000) translate(-31.000000, -24.000000) translate(-8.500000, -13.000000)">
                        <line x1="6.5" y1="0" x2="6.5" y2="73.2717091" id="Path-7"></line>
                        <line x1="3.5" y1="0" x2="3.5" y2="73.2717091" id="Path-7-Copy-17"></line>
                        <line x1="9.5" y1="0" x2="9.5" y2="73.2717091" id="Path-7-Copy"></line>
                        <line x1="18.5" y1="0" x2="18.5" y2="73.2717091" id="Path-7-Copy-2"></line>
                        <line x1="24.5" y1="0" x2="24.5" y2="73.2717091" id="Path-7-Copy-3"></line>
                        <line x1="54.5" y1="0" x2="54.5" y2="73.2717091" id="Path-7-Copy-18"></line>
                        <line x1="30.5" y1="0" x2="30.5" y2="73.2717091" id="Path-7-Copy-4"></line>
                        <line x1="60.5" y1="0" x2="60.5" y2="73.2717091" id="Path-7-Copy-19"></line>
                        <line x1="36.5" y1="0" x2="36.5" y2="73.2717091" id="Path-7-Copy-5"></line>
                        <line x1="66.5" y1="0" x2="66.5" y2="73.2717091" id="Path-7-Copy-20"></line>
                        <line x1="39.5" y1="0" x2="39.5" y2="73.2717091" id="Path-7-Copy-6"></line>
                        <line x1="69.5" y1="0" x2="69.5" y2="73.2717091" id="Path-7-Copy-21"></line>
                        <line x1="42.5" y1="0" x2="42.5" y2="73.2717091" id="Path-7-Copy-7"></line>
                        <line x1="72.5" y1="0" x2="72.5" y2="73.2717091" id="Path-7-Copy-22"></line>
                        <line x1="48.5" y1="0" x2="48.5" y2="73.2717091" id="Path-7-Copy-8"></line>
                        <line x1="78.5" y1="0" x2="78.5" y2="73.2717091" id="Path-7-Copy-23"></line>
                        <line x1="27.5" y1="0" x2="27.5" y2="73.2717091" id="Path-7-Copy-9"></line>
                        <line x1="57.5" y1="0" x2="57.5" y2="73.2717091" id="Path-7-Copy-24"></line>
                        <line x1="51.5" y1="0" x2="51.5" y2="73.2717091" id="Path-7-Copy-10"></line>
                        <line x1="45.5" y1="0" x2="45.5" y2="73.2717091" id="Path-7-Copy-12"></line>
                        <line x1="75.5" y1="0" x2="75.5" y2="73.2717091" id="Path-7-Copy-25"></line>
                        <line x1="33.5" y1="0" x2="33.5" y2="73.2717091" id="Path-7-Copy-13"></line>
                        <line x1="63.5" y1="0" x2="63.5" y2="73.2717091" id="Path-7-Copy-26"></line>
                        <line x1="21.5" y1="0" x2="21.5" y2="73.2717091" id="Path-7-Copy-14"></line>
                        <line x1="51.5" y1="0" x2="51.5" y2="73.2717091" id="Path-7-Copy-27"></line>
                        <line x1="15.5" y1="0" x2="15.5" y2="73.2717091" id="Path-7-Copy-15"></line>
                        <line x1="12.5" y1="0" x2="12.5" y2="73.2717091" id="Path-7-Copy-16"></line>
                        <line x1="0.5" y1="0" x2="0.5" y2="73.2717091" id="Path-7-Copy-11"></line>
                    </g>
                </g>
            </g>
            <path d="M101.997681,52.000039 C101.867607,38.3902095 96.3470719,26.0616656 87.4250156,17.0526631 C78.6232101,8.16508304 66.5115681,2.50854686 53.0000401,2.02909477 L53.0008218,22.0362932 C60.9185362,22.4200221 68.0438802,25.8227576 73.2502081,31.1182588 C78.5533854,36.5122682 81.8655283,43.8699823 81.9959976,52.0008205 L101.997681,52.000039 Z" id="Combined-Shape" stroke="#BCDE8D" stroke-width="2"></path>
        </g>
    </g>
</svg>