<?xml version="1.0" encoding="UTF-8"?>
<svg width="103px" height="103px" viewBox="0 0 103 103" version="1.1" xmlns="http://www.w3.org/2000/svg" xmlns:xlink="http://www.w3.org/1999/xlink">
    <title>Group 14</title>
    <defs>
        <path d="M52,0.004 L51.5,-4.54747351e-13 C79.9426646,-4.54747351e-13 103,23.0573354 103,51.5 L102.996,52 L80.9958339,52.0008596 C80.9986076,51.8342389 81,51.6672821 81,51.5 C81,35.3748819 68.0622255,22.271543 52.0008596,22.0041661 L52,0.004 Z" id="path-1"></path>
    </defs>
    <g id="Desktop" stroke="none" stroke-width="1" fill="none" fill-rule="evenodd">
        <g id="Group-14" transform="translate(51.500000, 51.500000) rotate(-180.000000) translate(-51.500000, -51.500000) translate(0.000000, 0.000000)">
            <path d="M51.5,2.27373675e-13 C79.9426646,2.27373675e-13 103,23.0573354 103,51.5 C103,79.9426646 79.9426646,103 51.5,103 C23.0573354,103 0,79.9426646 0,51.5 C0,23.0573354 23.0573354,2.27373675e-13 51.5,2.27373675e-13 Z M51.5,22 C35.2075999,22 22,35.2075999 22,51.5 C22,67.7924001 35.2075999,81 51.5,81 C67.7924001,81 81,67.7924001 81,51.5 C81,35.2075999 67.7924001,22 51.5,22 Z" id="Combined-Shape" fill="#D8D8D8" opacity="0"></path>
            <mask id="mask-2" fill="white">
                <use xlink:href="#path-1"></use>
            </mask>
            <g id="Mask"></g>
            <path d="M23.5,52 C24.3284271,52 25,52.6715729 25,53.5 C25,54.3284271 24.3284271,55 23.5,55 C22.6715729,55 22,54.3284271 22,53.5 C22,52.6715729 22.6715729,52 23.5,52 Z M68.5,52 C69.3284271,52 70,52.6715729 70,53.5 C70,54.3284271 69.3284271,55 68.5,55 C67.6715729,55 67,54.3284271 67,53.5 C67,52.6715729 67.6715729,52 68.5,52 Z M28.5,52 C29.3284271,52 30,52.6715729 30,53.5 C30,54.3284271 29.3284271,55 28.5,55 C27.6715729,55 27,54.3284271 27,53.5 C27,52.6715729 27.6715729,52 28.5,52 Z M73.5,52 C74.3284271,52 75,52.6715729 75,53.5 C75,54.3284271 74.3284271,55 73.5,55 C72.6715729,55 72,54.3284271 72,53.5 C72,52.6715729 72.6715729,52 73.5,52 Z M33.5,52 C34.3284271,52 35,52.6715729 35,53.5 C35,54.3284271 34.3284271,55 33.5,55 C32.6715729,55 32,54.3284271 32,53.5 C32,52.6715729 32.6715729,52 33.5,52 Z M78.5,52 C79.3284271,52 80,52.6715729 80,53.5 C80,54.3284271 79.3284271,55 78.5,55 C77.6715729,55 77,54.3284271 77,53.5 C77,52.6715729 77.6715729,52 78.5,52 Z M38.5,52 C39.3284271,52 40,52.6715729 40,53.5 C40,54.3284271 39.3284271,55 38.5,55 C37.6715729,55 37,54.3284271 37,53.5 C37,52.6715729 37.6715729,52 38.5,52 Z M83.5,52 C84.3284271,52 85,52.6715729 85,53.5 C85,54.3284271 84.3284271,55 83.5,55 C82.6715729,55 82,54.3284271 82,53.5 C82,52.6715729 82.6715729,52 83.5,52 Z M43.5,52 C44.3284271,52 45,52.6715729 45,53.5 C45,54.3284271 44.3284271,55 43.5,55 C42.6715729,55 42,54.3284271 42,53.5 C42,52.6715729 42.6715729,52 43.5,52 Z M88.5,52 C89.3284271,52 90,52.6715729 90,53.5 C90,54.3284271 89.3284271,55 88.5,55 C87.6715729,55 87,54.3284271 87,53.5 C87,52.6715729 87.6715729,52 88.5,52 Z M48.5,52 C49.3284271,52 50,52.6715729 50,53.5 C50,54.3284271 49.3284271,55 48.5,55 C47.6715729,55 47,54.3284271 47,53.5 C47,52.6715729 47.6715729,52 48.5,52 Z M93.5,52 C94.3284271,52 95,52.6715729 95,53.5 C95,54.3284271 94.3284271,55 93.5,55 C92.6715729,55 92,54.3284271 92,53.5 C92,52.6715729 92.6715729,52 93.5,52 Z M53.5,52 C54.3284271,52 55,52.6715729 55,53.5 C55,54.3284271 54.3284271,55 53.5,55 C52.6715729,55 52,54.3284271 52,53.5 C52,52.6715729 52.6715729,52 53.5,52 Z M98.5,52 C99.3284271,52 100,52.6715729 100,53.5 C100,54.3284271 99.3284271,55 98.5,55 C97.6715729,55 97,54.3284271 97,53.5 C97,52.6715729 97.6715729,52 98.5,52 Z M58.5,52 C59.3284271,52 60,52.6715729 60,53.5 C60,54.3284271 59.3284271,55 58.5,55 C57.6715729,55 57,54.3284271 57,53.5 C57,52.6715729 57.6715729,52 58.5,52 Z M103.5,52 C104.328427,52 105,52.6715729 105,53.5 C105,54.3284271 104.328427,55 103.5,55 C102.671573,55 102,54.3284271 102,53.5 C102,52.6715729 102.671573,52 103.5,52 Z M63.5,52 C64.3284271,52 65,52.6715729 65,53.5 C65,54.3284271 64.3284271,55 63.5,55 C62.6715729,55 62,54.3284271 62,53.5 C62,52.6715729 62.6715729,52 63.5,52 Z M108.5,52 C109.328427,52 110,52.6715729 110,53.5 C110,54.3284271 109.328427,55 108.5,55 C107.671573,55 107,54.3284271 107,53.5 C107,52.6715729 107.671573,52 108.5,52 Z M23.5,47 C24.3284271,47 25,47.6715729 25,48.5 C25,49.3284271 24.3284271,50 23.5,50 C22.6715729,50 22,49.3284271 22,48.5 C22,47.6715729 22.6715729,47 23.5,47 Z M68.5,47 C69.3284271,47 70,47.6715729 70,48.5 C70,49.3284271 69.3284271,50 68.5,50 C67.6715729,50 67,49.3284271 67,48.5 C67,47.6715729 67.6715729,47 68.5,47 Z M28.5,47 C29.3284271,47 30,47.6715729 30,48.5 C30,49.3284271 29.3284271,50 28.5,50 C27.6715729,50 27,49.3284271 27,48.5 C27,47.6715729 27.6715729,47 28.5,47 Z M73.5,47 C74.3284271,47 75,47.6715729 75,48.5 C75,49.3284271 74.3284271,50 73.5,50 C72.6715729,50 72,49.3284271 72,48.5 C72,47.6715729 72.6715729,47 73.5,47 Z M33.5,47 C34.3284271,47 35,47.6715729 35,48.5 C35,49.3284271 34.3284271,50 33.5,50 C32.6715729,50 32,49.3284271 32,48.5 C32,47.6715729 32.6715729,47 33.5,47 Z M78.5,47 C79.3284271,47 80,47.6715729 80,48.5 C80,49.3284271 79.3284271,50 78.5,50 C77.6715729,50 77,49.3284271 77,48.5 C77,47.6715729 77.6715729,47 78.5,47 Z M38.5,47 C39.3284271,47 40,47.6715729 40,48.5 C40,49.3284271 39.3284271,50 38.5,50 C37.6715729,50 37,49.3284271 37,48.5 C37,47.6715729 37.6715729,47 38.5,47 Z M83.5,47 C84.3284271,47 85,47.6715729 85,48.5 C85,49.3284271 84.3284271,50 83.5,50 C82.6715729,50 82,49.3284271 82,48.5 C82,47.6715729 82.6715729,47 83.5,47 Z M43.5,47 C44.3284271,47 45,47.6715729 45,48.5 C45,49.3284271 44.3284271,50 43.5,50 C42.6715729,50 42,49.3284271 42,48.5 C42,47.6715729 42.6715729,47 43.5,47 Z M88.5,47 C89.3284271,47 90,47.6715729 90,48.5 C90,49.3284271 89.3284271,50 88.5,50 C87.6715729,50 87,49.3284271 87,48.5 C87,47.6715729 87.6715729,47 88.5,47 Z M48.5,47 C49.3284271,47 50,47.6715729 50,48.5 C50,49.3284271 49.3284271,50 48.5,50 C47.6715729,50 47,49.3284271 47,48.5 C47,47.6715729 47.6715729,47 48.5,47 Z M93.5,47 C94.3284271,47 95,47.6715729 95,48.5 C95,49.3284271 94.3284271,50 93.5,50 C92.6715729,50 92,49.3284271 92,48.5 C92,47.6715729 92.6715729,47 93.5,47 Z M53.5,47 C54.3284271,47 55,47.6715729 55,48.5 C55,49.3284271 54.3284271,50 53.5,50 C52.6715729,50 52,49.3284271 52,48.5 C52,47.6715729 52.6715729,47 53.5,47 Z M98.5,47 C99.3284271,47 100,47.6715729 100,48.5 C100,49.3284271 99.3284271,50 98.5,50 C97.6715729,50 97,49.3284271 97,48.5 C97,47.6715729 97.6715729,47 98.5,47 Z M58.5,47 C59.3284271,47 60,47.6715729 60,48.5 C60,49.3284271 59.3284271,50 58.5,50 C57.6715729,50 57,49.3284271 57,48.5 C57,47.6715729 57.6715729,47 58.5,47 Z M103.5,47 C104.328427,47 105,47.6715729 105,48.5 C105,49.3284271 104.328427,50 103.5,50 C102.671573,50 102,49.3284271 102,48.5 C102,47.6715729 102.671573,47 103.5,47 Z M63.5,47 C64.3284271,47 65,47.6715729 65,48.5 C65,49.3284271 64.3284271,50 63.5,50 C62.6715729,50 62,49.3284271 62,48.5 C62,47.6715729 62.6715729,47 63.5,47 Z M108.5,47 C109.328427,47 110,47.6715729 110,48.5 C110,49.3284271 109.328427,50 108.5,50 C107.671573,50 107,49.3284271 107,48.5 C107,47.6715729 107.671573,47 108.5,47 Z M23.5,42 C24.3284271,42 25,42.6715729 25,43.5 C25,44.3284271 24.3284271,45 23.5,45 C22.6715729,45 22,44.3284271 22,43.5 C22,42.6715729 22.6715729,42 23.5,42 Z M68.5,42 C69.3284271,42 70,42.6715729 70,43.5 C70,44.3284271 69.3284271,45 68.5,45 C67.6715729,45 67,44.3284271 67,43.5 C67,42.6715729 67.6715729,42 68.5,42 Z M28.5,42 C29.3284271,42 30,42.6715729 30,43.5 C30,44.3284271 29.3284271,45 28.5,45 C27.6715729,45 27,44.3284271 27,43.5 C27,42.6715729 27.6715729,42 28.5,42 Z M73.5,42 C74.3284271,42 75,42.6715729 75,43.5 C75,44.3284271 74.3284271,45 73.5,45 C72.6715729,45 72,44.3284271 72,43.5 C72,42.6715729 72.6715729,42 73.5,42 Z M33.5,42 C34.3284271,42 35,42.6715729 35,43.5 C35,44.3284271 34.3284271,45 33.5,45 C32.6715729,45 32,44.3284271 32,43.5 C32,42.6715729 32.6715729,42 33.5,42 Z M78.5,42 C79.3284271,42 80,42.6715729 80,43.5 C80,44.3284271 79.3284271,45 78.5,45 C77.6715729,45 77,44.3284271 77,43.5 C77,42.6715729 77.6715729,42 78.5,42 Z M38.5,42 C39.3284271,42 40,42.6715729 40,43.5 C40,44.3284271 39.3284271,45 38.5,45 C37.6715729,45 37,44.3284271 37,43.5 C37,42.6715729 37.6715729,42 38.5,42 Z M83.5,42 C84.3284271,42 85,42.6715729 85,43.5 C85,44.3284271 84.3284271,45 83.5,45 C82.6715729,45 82,44.3284271 82,43.5 C82,42.6715729 82.6715729,42 83.5,42 Z M43.5,42 C44.3284271,42 45,42.6715729 45,43.5 C45,44.3284271 44.3284271,45 43.5,45 C42.6715729,45 42,44.3284271 42,43.5 C42,42.6715729 42.6715729,42 43.5,42 Z M88.5,42 C89.3284271,42 90,42.6715729 90,43.5 C90,44.3284271 89.3284271,45 88.5,45 C87.6715729,45 87,44.3284271 87,43.5 C87,42.6715729 87.6715729,42 88.5,42 Z M48.5,42 C49.3284271,42 50,42.6715729 50,43.5 C50,44.3284271 49.3284271,45 48.5,45 C47.6715729,45 47,44.3284271 47,43.5 C47,42.6715729 47.6715729,42 48.5,42 Z M93.5,42 C94.3284271,42 95,42.6715729 95,43.5 C95,44.3284271 94.3284271,45 93.5,45 C92.6715729,45 92,44.3284271 92,43.5 C92,42.6715729 92.6715729,42 93.5,42 Z M53.5,42 C54.3284271,42 55,42.6715729 55,43.5 C55,44.3284271 54.3284271,45 53.5,45 C52.6715729,45 52,44.3284271 52,43.5 C52,42.6715729 52.6715729,42 53.5,42 Z M98.5,42 C99.3284271,42 100,42.6715729 100,43.5 C100,44.3284271 99.3284271,45 98.5,45 C97.6715729,45 97,44.3284271 97,43.5 C97,42.6715729 97.6715729,42 98.5,42 Z M58.5,42 C59.3284271,42 60,42.6715729 60,43.5 C60,44.3284271 59.3284271,45 58.5,45 C57.6715729,45 57,44.3284271 57,43.5 C57,42.6715729 57.6715729,42 58.5,42 Z M103.5,42 C104.328427,42 105,42.6715729 105,43.5 C105,44.3284271 104.328427,45 103.5,45 C102.671573,45 102,44.3284271 102,43.5 C102,42.6715729 102.671573,42 103.5,42 Z M63.5,42 C64.3284271,42 65,42.6715729 65,43.5 C65,44.3284271 64.3284271,45 63.5,45 C62.6715729,45 62,44.3284271 62,43.5 C62,42.6715729 62.6715729,42 63.5,42 Z M108.5,42 C109.328427,42 110,42.6715729 110,43.5 C110,44.3284271 109.328427,45 108.5,45 C107.671573,45 107,44.3284271 107,43.5 C107,42.6715729 107.671573,42 108.5,42 Z M43.5,37 C44.3284271,37 45,37.6715729 45,38.5 C45,39.3284271 44.3284271,40 43.5,40 C42.6715729,40 42,39.3284271 42,38.5 C42,37.6715729 42.6715729,37 43.5,37 Z M88.5,37 C89.3284271,37 90,37.6715729 90,38.5 C90,39.3284271 89.3284271,40 88.5,40 C87.6715729,40 87,39.3284271 87,38.5 C87,37.6715729 87.6715729,37 88.5,37 Z M23.5,37 C24.3284271,37 25,37.6715729 25,38.5 C25,39.3284271 24.3284271,40 23.5,40 C22.6715729,40 22,39.3284271 22,38.5 C22,37.6715729 22.6715729,37 23.5,37 Z M68.5,37 C69.3284271,37 70,37.6715729 70,38.5 C70,39.3284271 69.3284271,40 68.5,40 C67.6715729,40 67,39.3284271 67,38.5 C67,37.6715729 67.6715729,37 68.5,37 Z M28.5,37 C29.3284271,37 30,37.6715729 30,38.5 C30,39.3284271 29.3284271,40 28.5,40 C27.6715729,40 27,39.3284271 27,38.5 C27,37.6715729 27.6715729,37 28.5,37 Z M73.5,37 C74.3284271,37 75,37.6715729 75,38.5 C75,39.3284271 74.3284271,40 73.5,40 C72.6715729,40 72,39.3284271 72,38.5 C72,37.6715729 72.6715729,37 73.5,37 Z M33.5,37 C34.3284271,37 35,37.6715729 35,38.5 C35,39.3284271 34.3284271,40 33.5,40 C32.6715729,40 32,39.3284271 32,38.5 C32,37.6715729 32.6715729,37 33.5,37 Z M78.5,37 C79.3284271,37 80,37.6715729 80,38.5 C80,39.3284271 79.3284271,40 78.5,40 C77.6715729,40 77,39.3284271 77,38.5 C77,37.6715729 77.6715729,37 78.5,37 Z M38.5,37 C39.3284271,37 40,37.6715729 40,38.5 C40,39.3284271 39.3284271,40 38.5,40 C37.6715729,40 37,39.3284271 37,38.5 C37,37.6715729 37.6715729,37 38.5,37 Z M83.5,37 C84.3284271,37 85,37.6715729 85,38.5 C85,39.3284271 84.3284271,40 83.5,40 C82.6715729,40 82,39.3284271 82,38.5 C82,37.6715729 82.6715729,37 83.5,37 Z M53.5,37 C54.3284271,37 55,37.6715729 55,38.5 C55,39.3284271 54.3284271,40 53.5,40 C52.6715729,40 52,39.3284271 52,38.5 C52,37.6715729 52.6715729,37 53.5,37 Z M98.5,37 C99.3284271,37 100,37.6715729 100,38.5 C100,39.3284271 99.3284271,40 98.5,40 C97.6715729,40 97,39.3284271 97,38.5 C97,37.6715729 97.6715729,37 98.5,37 Z M58.5,37 C59.3284271,37 60,37.6715729 60,38.5 C60,39.3284271 59.3284271,40 58.5,40 C57.6715729,40 57,39.3284271 57,38.5 C57,37.6715729 57.6715729,37 58.5,37 Z M103.5,37 C104.328427,37 105,37.6715729 105,38.5 C105,39.3284271 104.328427,40 103.5,40 C102.671573,40 102,39.3284271 102,38.5 C102,37.6715729 102.671573,37 103.5,37 Z M63.5,37 C64.3284271,37 65,37.6715729 65,38.5 C65,39.3284271 64.3284271,40 63.5,40 C62.6715729,40 62,39.3284271 62,38.5 C62,37.6715729 62.6715729,37 63.5,37 Z M108.5,37 C109.328427,37 110,37.6715729 110,38.5 C110,39.3284271 109.328427,40 108.5,40 C107.671573,40 107,39.3284271 107,38.5 C107,37.6715729 107.671573,37 108.5,37 Z M48.5,37 C49.3284271,37 50,37.6715729 50,38.5 C50,39.3284271 49.3284271,40 48.5,40 C47.6715729,40 47,39.3284271 47,38.5 C47,37.6715729 47.6715729,37 48.5,37 Z M93.5,37 C94.3284271,37 95,37.6715729 95,38.5 C95,39.3284271 94.3284271,40 93.5,40 C92.6715729,40 92,39.3284271 92,38.5 C92,37.6715729 92.6715729,37 93.5,37 Z M43.5,32 C44.3284271,32 45,32.6715729 45,33.5 C45,34.3284271 44.3284271,35 43.5,35 C42.6715729,35 42,34.3284271 42,33.5 C42,32.6715729 42.6715729,32 43.5,32 Z M68.5,32 C69.3284271,32 70,32.6715729 70,33.5 C70,34.3284271 69.3284271,35 68.5,35 C67.6715729,35 67,34.3284271 67,33.5 C67,32.6715729 67.6715729,32 68.5,32 Z M73.5,32 C74.3284271,32 75,32.6715729 75,33.5 C75,34.3284271 74.3284271,35 73.5,35 C72.6715729,35 72,34.3284271 72,33.5 C72,32.6715729 72.6715729,32 73.5,32 Z M78.5,32 C79.3284271,32 80,32.6715729 80,33.5 C80,34.3284271 79.3284271,35 78.5,35 C77.6715729,35 77,34.3284271 77,33.5 C77,32.6715729 77.6715729,32 78.5,32 Z M83.5,32 C84.3284271,32 85,32.6715729 85,33.5 C85,34.3284271 84.3284271,35 83.5,35 C82.6715729,35 82,34.3284271 82,33.5 C82,32.6715729 82.6715729,32 83.5,32 Z M98.5,32 C99.3284271,32 100,32.6715729 100,33.5 C100,34.3284271 99.3284271,35 98.5,35 C97.6715729,35 97,34.3284271 97,33.5 C97,32.6715729 97.6715729,32 98.5,32 Z M103.5,32 C104.328427,32 105,32.6715729 105,33.5 C105,34.3284271 104.328427,35 103.5,35 C102.671573,35 102,34.3284271 102,33.5 C102,32.6715729 102.671573,32 103.5,32 Z M108.5,32 C109.328427,32 110,32.6715729 110,33.5 C110,34.3284271 109.328427,35 108.5,35 C107.671573,35 107,34.3284271 107,33.5 C107,32.6715729 107.671573,32 108.5,32 Z M93.5,32 C94.3284271,32 95,32.6715729 95,33.5 C95,34.3284271 94.3284271,35 93.5,35 C92.6715729,35 92,34.3284271 92,33.5 C92,32.6715729 92.6715729,32 93.5,32 Z M23.5,32 C24.3284271,32 25,32.6715729 25,33.5 C25,34.3284271 24.3284271,35 23.5,35 C22.6715729,35 22,34.3284271 22,33.5 C22,32.6715729 22.6715729,32 23.5,32 Z M53.5,32 C54.3284271,32 55,32.6715729 55,33.5 C55,34.3284271 54.3284271,35 53.5,35 C52.6715729,35 52,34.3284271 52,33.5 C52,32.6715729 52.6715729,32 53.5,32 Z M33.5,32 C34.3284271,32 35,32.6715729 35,33.5 C35,34.3284271 34.3284271,35 33.5,35 C32.6715729,35 32,34.3284271 32,33.5 C32,32.6715729 32.6715729,32 33.5,32 Z M58.5,32 C59.3284271,32 60,32.6715729 60,33.5 C60,34.3284271 59.3284271,35 58.5,35 C57.6715729,35 57,34.3284271 57,33.5 C57,32.6715729 57.6715729,32 58.5,32 Z M28.5,32 C29.3284271,32 30,32.6715729 30,33.5 C30,34.3284271 29.3284271,35 28.5,35 C27.6715729,35 27,34.3284271 27,33.5 C27,32.6715729 27.6715729,32 28.5,32 Z M63.5,32 C64.3284271,32 65,32.6715729 65,33.5 C65,34.3284271 64.3284271,35 63.5,35 C62.6715729,35 62,34.3284271 62,33.5 C62,32.6715729 62.6715729,32 63.5,32 Z M38.5,32 C39.3284271,32 40,32.6715729 40,33.5 C40,34.3284271 39.3284271,35 38.5,35 C37.6715729,35 37,34.3284271 37,33.5 C37,32.6715729 37.6715729,32 38.5,32 Z M48.5,32 C49.3284271,32 50,32.6715729 50,33.5 C50,34.3284271 49.3284271,35 48.5,35 C47.6715729,35 47,34.3284271 47,33.5 C47,32.6715729 47.6715729,32 48.5,32 Z M88.5,32 C89.3284271,32 90,32.6715729 90,33.5 C90,34.3284271 89.3284271,35 88.5,35 C87.6715729,35 87,34.3284271 87,33.5 C87,32.6715729 87.6715729,32 88.5,32 Z M48.5,27 C49.3284271,27 50,27.6715729 50,28.5 C50,29.3284271 49.3284271,30 48.5,30 C47.6715729,30 47,29.3284271 47,28.5 C47,27.6715729 47.6715729,27 48.5,27 Z M88.5,27 C89.3284271,27 90,27.6715729 90,28.5 C90,29.3284271 89.3284271,30 88.5,30 C87.6715729,30 87,29.3284271 87,28.5 C87,27.6715729 87.6715729,27 88.5,27 Z M93.5,27 C94.3284271,27 95,27.6715729 95,28.5 C95,29.3284271 94.3284271,30 93.5,30 C92.6715729,30 92,29.3284271 92,28.5 C92,27.6715729 92.6715729,27 93.5,27 Z M53.5,27 C54.3284271,27 55,27.6715729 55,28.5 C55,29.3284271 54.3284271,30 53.5,30 C52.6715729,30 52,29.3284271 52,28.5 C52,27.6715729 52.6715729,27 53.5,27 Z M98.5,27 C99.3284271,27 100,27.6715729 100,28.5 C100,29.3284271 99.3284271,30 98.5,30 C97.6715729,30 97,29.3284271 97,28.5 C97,27.6715729 97.6715729,27 98.5,27 Z M58.5,27 C59.3284271,27 60,27.6715729 60,28.5 C60,29.3284271 59.3284271,30 58.5,30 C57.6715729,30 57,29.3284271 57,28.5 C57,27.6715729 57.6715729,27 58.5,27 Z M103.5,27 C104.328427,27 105,27.6715729 105,28.5 C105,29.3284271 104.328427,30 103.5,30 C102.671573,30 102,29.3284271 102,28.5 C102,27.6715729 102.671573,27 103.5,27 Z M63.5,27 C64.3284271,27 65,27.6715729 65,28.5 C65,29.3284271 64.3284271,30 63.5,30 C62.6715729,30 62,29.3284271 62,28.5 C62,27.6715729 62.6715729,27 63.5,27 Z M108.5,27 C109.328427,27 110,27.6715729 110,28.5 C110,29.3284271 109.328427,30 108.5,30 C107.671573,30 107,29.3284271 107,28.5 C107,27.6715729 107.671573,27 108.5,27 Z M23.5,27 C24.3284271,27 25,27.6715729 25,28.5 C25,29.3284271 24.3284271,30 23.5,30 C22.6715729,30 22,29.3284271 22,28.5 C22,27.6715729 22.6715729,27 23.5,27 Z M33.5,27 C34.3284271,27 35,27.6715729 35,28.5 C35,29.3284271 34.3284271,30 33.5,30 C32.6715729,30 32,29.3284271 32,28.5 C32,27.6715729 32.6715729,27 33.5,27 Z M78.5,27 C79.3284271,27 80,27.6715729 80,28.5 C80,29.3284271 79.3284271,30 78.5,30 C77.6715729,30 77,29.3284271 77,28.5 C77,27.6715729 77.6715729,27 78.5,27 Z M28.5,27 C29.3284271,27 30,27.6715729 30,28.5 C30,29.3284271 29.3284271,30 28.5,30 C27.6715729,30 27,29.3284271 27,28.5 C27,27.6715729 27.6715729,27 28.5,27 Z M38.5,27 C39.3284271,27 40,27.6715729 40,28.5 C40,29.3284271 39.3284271,30 38.5,30 C37.6715729,30 37,29.3284271 37,28.5 C37,27.6715729 37.6715729,27 38.5,27 Z M68.5,27 C69.3284271,27 70,27.6715729 70,28.5 C70,29.3284271 69.3284271,30 68.5,30 C67.6715729,30 67,29.3284271 67,28.5 C67,27.6715729 67.6715729,27 68.5,27 Z M83.5,27 C84.3284271,27 85,27.6715729 85,28.5 C85,29.3284271 84.3284271,30 83.5,30 C82.6715729,30 82,29.3284271 82,28.5 C82,27.6715729 82.6715729,27 83.5,27 Z M43.5,27 C44.3284271,27 45,27.6715729 45,28.5 C45,29.3284271 44.3284271,30 43.5,30 C42.6715729,30 42,29.3284271 42,28.5 C42,27.6715729 42.6715729,27 43.5,27 Z M73.5,27 C74.3284271,27 75,27.6715729 75,28.5 C75,29.3284271 74.3284271,30 73.5,30 C72.6715729,30 72,29.3284271 72,28.5 C72,27.6715729 72.6715729,27 73.5,27 Z M28.5,22 C29.3284271,22 30,22.6715729 30,23.5 C30,24.3284271 29.3284271,25 28.5,25 C27.6715729,25 27,24.3284271 27,23.5 C27,22.6715729 27.6715729,22 28.5,22 Z M48.5,22 C49.3284271,22 50,22.6715729 50,23.5 C50,24.3284271 49.3284271,25 48.5,25 C47.6715729,25 47,24.3284271 47,23.5 C47,22.6715729 47.6715729,22 48.5,22 Z M68.5,22 C69.3284271,22 70,22.6715729 70,23.5 C70,24.3284271 69.3284271,25 68.5,25 C67.6715729,25 67,24.3284271 67,23.5 C67,22.6715729 67.6715729,22 68.5,22 Z M93.5,22 C94.3284271,22 95,22.6715729 95,23.5 C95,24.3284271 94.3284271,25 93.5,25 C92.6715729,25 92,24.3284271 92,23.5 C92,22.6715729 92.6715729,22 93.5,22 Z M73.5,22 C74.3284271,22 75,22.6715729 75,23.5 C75,24.3284271 74.3284271,25 73.5,25 C72.6715729,25 72,24.3284271 72,23.5 C72,22.6715729 72.6715729,22 73.5,22 Z M53.5,22 C54.3284271,22 55,22.6715729 55,23.5 C55,24.3284271 54.3284271,25 53.5,25 C52.6715729,25 52,24.3284271 52,23.5 C52,22.6715729 52.6715729,22 53.5,22 Z M78.5,22 C79.3284271,22 80,22.6715729 80,23.5 C80,24.3284271 79.3284271,25 78.5,25 C77.6715729,25 77,24.3284271 77,23.5 C77,22.6715729 77.6715729,22 78.5,22 Z M98.5,22 C99.3284271,22 100,22.6715729 100,23.5 C100,24.3284271 99.3284271,25 98.5,25 C97.6715729,25 97,24.3284271 97,23.5 C97,22.6715729 97.6715729,22 98.5,22 Z M83.5,22 C84.3284271,22 85,22.6715729 85,23.5 C85,24.3284271 84.3284271,25 83.5,25 C82.6715729,25 82,24.3284271 82,23.5 C82,22.6715729 82.6715729,22 83.5,22 Z M58.5,22 C59.3284271,22 60,22.6715729 60,23.5 C60,24.3284271 59.3284271,25 58.5,25 C57.6715729,25 57,24.3284271 57,23.5 C57,22.6715729 57.6715729,22 58.5,22 Z M23.5,22 C24.3284271,22 25,22.6715729 25,23.5 C25,24.3284271 24.3284271,25 23.5,25 C22.6715729,25 22,24.3284271 22,23.5 C22,22.6715729 22.6715729,22 23.5,22 Z M103.5,22 C104.328427,22 105,22.6715729 105,23.5 C105,24.3284271 104.328427,25 103.5,25 C102.671573,25 102,24.3284271 102,23.5 C102,22.6715729 102.671573,22 103.5,22 Z M33.5,22 C34.3284271,22 35,22.6715729 35,23.5 C35,24.3284271 34.3284271,25 33.5,25 C32.6715729,25 32,24.3284271 32,23.5 C32,22.6715729 32.6715729,22 33.5,22 Z M63.5,22 C64.3284271,22 65,22.6715729 65,23.5 C65,24.3284271 64.3284271,25 63.5,25 C62.6715729,25 62,24.3284271 62,23.5 C62,22.6715729 62.6715729,22 63.5,22 Z M43.5,22 C44.3284271,22 45,22.6715729 45,23.5 C45,24.3284271 44.3284271,25 43.5,25 C42.6715729,25 42,24.3284271 42,23.5 C42,22.6715729 42.6715729,22 43.5,22 Z M108.5,22 C109.328427,22 110,22.6715729 110,23.5 C110,24.3284271 109.328427,25 108.5,25 C107.671573,25 107,24.3284271 107,23.5 C107,22.6715729 107.671573,22 108.5,22 Z M38.5,22 C39.3284271,22 40,22.6715729 40,23.5 C40,24.3284271 39.3284271,25 38.5,25 C37.6715729,25 37,24.3284271 37,23.5 C37,22.6715729 37.6715729,22 38.5,22 Z M88.5,22 C89.3284271,22 90,22.6715729 90,23.5 C90,24.3284271 89.3284271,25 88.5,25 C87.6715729,25 87,24.3284271 87,23.5 C87,22.6715729 87.6715729,22 88.5,22 Z M48.5,17 C49.3284271,17 50,17.6715729 50,18.5 C50,19.3284271 49.3284271,20 48.5,20 C47.6715729,20 47,19.3284271 47,18.5 C47,17.6715729 47.6715729,17 48.5,17 Z M103.5,17 C104.328427,17 105,17.6715729 105,18.5 C105,19.3284271 104.328427,20 103.5,20 C102.671573,20 102,19.3284271 102,18.5 C102,17.6715729 102.671573,17 103.5,17 Z M93.5,17 C94.3284271,17 95,17.6715729 95,18.5 C95,19.3284271 94.3284271,20 93.5,20 C92.6715729,20 92,19.3284271 92,18.5 C92,17.6715729 92.6715729,17 93.5,17 Z M33.5,17 C34.3284271,17 35,17.6715729 35,18.5 C35,19.3284271 34.3284271,20 33.5,20 C32.6715729,20 32,19.3284271 32,18.5 C32,17.6715729 32.6715729,17 33.5,17 Z M53.5,17 C54.3284271,17 55,17.6715729 55,18.5 C55,19.3284271 54.3284271,20 53.5,20 C52.6715729,20 52,19.3284271 52,18.5 C52,17.6715729 52.6715729,17 53.5,17 Z M63.5,17 C64.3284271,17 65,17.6715729 65,18.5 C65,19.3284271 64.3284271,20 63.5,20 C62.6715729,20 62,19.3284271 62,18.5 C62,17.6715729 62.6715729,17 63.5,17 Z M98.5,17 C99.3284271,17 100,17.6715729 100,18.5 C100,19.3284271 99.3284271,20 98.5,20 C97.6715729,20 97,19.3284271 97,18.5 C97,17.6715729 97.6715729,17 98.5,17 Z M43.5,17 C44.3284271,17 45,17.6715729 45,18.5 C45,19.3284271 44.3284271,20 43.5,20 C42.6715729,20 42,19.3284271 42,18.5 C42,17.6715729 42.6715729,17 43.5,17 Z M28.5,17 C29.3284271,17 30,17.6715729 30,18.5 C30,19.3284271 29.3284271,20 28.5,20 C27.6715729,20 27,19.3284271 27,18.5 C27,17.6715729 27.6715729,17 28.5,17 Z M108.5,17 C109.328427,17 110,17.6715729 110,18.5 C110,19.3284271 109.328427,20 108.5,20 C107.671573,20 107,19.3284271 107,18.5 C107,17.6715729 107.671573,17 108.5,17 Z M73.5,17 C74.3284271,17 75,17.6715729 75,18.5 C75,19.3284271 74.3284271,20 73.5,20 C72.6715729,20 72,19.3284271 72,18.5 C72,17.6715729 72.6715729,17 73.5,17 Z M38.5,17 C39.3284271,17 40,17.6715729 40,18.5 C40,19.3284271 39.3284271,20 38.5,20 C37.6715729,20 37,19.3284271 37,18.5 C37,17.6715729 37.6715729,17 38.5,17 Z M83.5,17 C84.3284271,17 85,17.6715729 85,18.5 C85,19.3284271 84.3284271,20 83.5,20 C82.6715729,20 82,19.3284271 82,18.5 C82,17.6715729 82.6715729,17 83.5,17 Z M88.5,17 C89.3284271,17 90,17.6715729 90,18.5 C90,19.3284271 89.3284271,20 88.5,20 C87.6715729,20 87,19.3284271 87,18.5 C87,17.6715729 87.6715729,17 88.5,17 Z M78.5,17 C79.3284271,17 80,17.6715729 80,18.5 C80,19.3284271 79.3284271,20 78.5,20 C77.6715729,20 77,19.3284271 77,18.5 C77,17.6715729 77.6715729,17 78.5,17 Z M58.5,17 C59.3284271,17 60,17.6715729 60,18.5 C60,19.3284271 59.3284271,20 58.5,20 C57.6715729,20 57,19.3284271 57,18.5 C57,17.6715729 57.6715729,17 58.5,17 Z M68.5,17 C69.3284271,17 70,17.6715729 70,18.5 C70,19.3284271 69.3284271,20 68.5,20 C67.6715729,20 67,19.3284271 67,18.5 C67,17.6715729 67.6715729,17 68.5,17 Z M23.5,17 C24.3284271,17 25,17.6715729 25,18.5 C25,19.3284271 24.3284271,20 23.5,20 C22.6715729,20 22,19.3284271 22,18.5 C22,17.6715729 22.6715729,17 23.5,17 Z M48.5,12 C49.3284271,12 50,12.6715729 50,13.5 C50,14.3284271 49.3284271,15 48.5,15 C47.6715729,15 47,14.3284271 47,13.5 C47,12.6715729 47.6715729,12 48.5,12 Z M83.5,12 C84.3284271,12 85,12.6715729 85,13.5 C85,14.3284271 84.3284271,15 83.5,15 C82.6715729,15 82,14.3284271 82,13.5 C82,12.6715729 82.6715729,12 83.5,12 Z M53.5,12 C54.3284271,12 55,12.6715729 55,13.5 C55,14.3284271 54.3284271,15 53.5,15 C52.6715729,15 52,14.3284271 52,13.5 C52,12.6715729 52.6715729,12 53.5,12 Z M88.5,12 C89.3284271,12 90,12.6715729 90,13.5 C90,14.3284271 89.3284271,15 88.5,15 C87.6715729,15 87,14.3284271 87,13.5 C87,12.6715729 87.6715729,12 88.5,12 Z M98.5,12 C99.3284271,12 100,12.6715729 100,13.5 C100,14.3284271 99.3284271,15 98.5,15 C97.6715729,15 97,14.3284271 97,13.5 C97,12.6715729 97.6715729,12 98.5,12 Z M78.5,12 C79.3284271,12 80,12.6715729 80,13.5 C80,14.3284271 79.3284271,15 78.5,15 C77.6715729,15 77,14.3284271 77,13.5 C77,12.6715729 77.6715729,12 78.5,12 Z M28.5,12 C29.3284271,12 30,12.6715729 30,13.5 C30,14.3284271 29.3284271,15 28.5,15 C27.6715729,15 27,14.3284271 27,13.5 C27,12.6715729 27.6715729,12 28.5,12 Z M58.5,12 C59.3284271,12 60,12.6715729 60,13.5 C60,14.3284271 59.3284271,15 58.5,15 C57.6715729,15 57,14.3284271 57,13.5 C57,12.6715729 57.6715729,12 58.5,12 Z M103.5,12 C104.328427,12 105,12.6715729 105,13.5 C105,14.3284271 104.328427,15 103.5,15 C102.671573,15 102,14.3284271 102,13.5 C102,12.6715729 102.671573,12 103.5,12 Z M68.5,12 C69.3284271,12 70,12.6715729 70,13.5 C70,14.3284271 69.3284271,15 68.5,15 C67.6715729,15 67,14.3284271 67,13.5 C67,12.6715729 67.6715729,12 68.5,12 Z M63.5,12 C64.3284271,12 65,12.6715729 65,13.5 C65,14.3284271 64.3284271,15 63.5,15 C62.6715729,15 62,14.3284271 62,13.5 C62,12.6715729 62.6715729,12 63.5,12 Z M23.5,12 C24.3284271,12 25,12.6715729 25,13.5 C25,14.3284271 24.3284271,15 23.5,15 C22.6715729,15 22,14.3284271 22,13.5 C22,12.6715729 22.6715729,12 23.5,12 Z M108.5,12 C109.328427,12 110,12.6715729 110,13.5 C110,14.3284271 109.328427,15 108.5,15 C107.671573,15 107,14.3284271 107,13.5 C107,12.6715729 107.671573,12 108.5,12 Z M73.5,12 C74.3284271,12 75,12.6715729 75,13.5 C75,14.3284271 74.3284271,15 73.5,15 C72.6715729,15 72,14.3284271 72,13.5 C72,12.6715729 72.6715729,12 73.5,12 Z M43.5,12 C44.3284271,12 45,12.6715729 45,13.5 C45,14.3284271 44.3284271,15 43.5,15 C42.6715729,15 42,14.3284271 42,13.5 C42,12.6715729 42.6715729,12 43.5,12 Z M33.5,12 C34.3284271,12 35,12.6715729 35,13.5 C35,14.3284271 34.3284271,15 33.5,15 C32.6715729,15 32,14.3284271 32,13.5 C32,12.6715729 32.6715729,12 33.5,12 Z M38.5,12 C39.3284271,12 40,12.6715729 40,13.5 C40,14.3284271 39.3284271,15 38.5,15 C37.6715729,15 37,14.3284271 37,13.5 C37,12.6715729 37.6715729,12 38.5,12 Z M93.5,12 C94.3284271,12 95,12.6715729 95,13.5 C95,14.3284271 94.3284271,15 93.5,15 C92.6715729,15 92,14.3284271 92,13.5 C92,12.6715729 92.6715729,12 93.5,12 Z M23.5,7 C24.3284271,7 25,7.67157288 25,8.5 C25,9.32842712 24.3284271,10 23.5,10 C22.6715729,10 22,9.32842712 22,8.5 C22,7.67157288 22.6715729,7 23.5,7 Z M28.5,7 C29.3284271,7 30,7.67157288 30,8.5 C30,9.32842712 29.3284271,10 28.5,10 C27.6715729,10 27,9.32842712 27,8.5 C27,7.67157288 27.6715729,7 28.5,7 Z M73.5,7 C74.3284271,7 75,7.67157288 75,8.5 C75,9.32842712 74.3284271,10 73.5,10 C72.6715729,10 72,9.32842712 72,8.5 C72,7.67157288 72.6715729,7 73.5,7 Z M33.5,7 C34.3284271,7 35,7.67157288 35,8.5 C35,9.32842712 34.3284271,10 33.5,10 C32.6715729,10 32,9.32842712 32,8.5 C32,7.67157288 32.6715729,7 33.5,7 Z M78.5,7 C79.3284271,7 80,7.67157288 80,8.5 C80,9.32842712 79.3284271,10 78.5,10 C77.6715729,10 77,9.32842712 77,8.5 C77,7.67157288 77.6715729,7 78.5,7 Z M38.5,7 C39.3284271,7 40,7.67157288 40,8.5 C40,9.32842712 39.3284271,10 38.5,10 C37.6715729,10 37,9.32842712 37,8.5 C37,7.67157288 37.6715729,7 38.5,7 Z M83.5,7 C84.3284271,7 85,7.67157288 85,8.5 C85,9.32842712 84.3284271,10 83.5,10 C82.6715729,10 82,9.32842712 82,8.5 C82,7.67157288 82.6715729,7 83.5,7 Z M88.5,7 C89.3284271,7 90,7.67157288 90,8.5 C90,9.32842712 89.3284271,10 88.5,10 C87.6715729,10 87,9.32842712 87,8.5 C87,7.67157288 87.6715729,7 88.5,7 Z M98.5,7 C99.3284271,7 100,7.67157288 100,8.5 C100,9.32842712 99.3284271,10 98.5,10 C97.6715729,10 97,9.32842712 97,8.5 C97,7.67157288 97.6715729,7 98.5,7 Z M58.5,7 C59.3284271,7 60,7.67157288 60,8.5 C60,9.32842712 59.3284271,10 58.5,10 C57.6715729,10 57,9.32842712 57,8.5 C57,7.67157288 57.6715729,7 58.5,7 Z M103.5,7 C104.328427,7 105,7.67157288 105,8.5 C105,9.32842712 104.328427,10 103.5,10 C102.671573,10 102,9.32842712 102,8.5 C102,7.67157288 102.671573,7 103.5,7 Z M63.5,7 C64.3284271,7 65,7.67157288 65,8.5 C65,9.32842712 64.3284271,10 63.5,10 C62.6715729,10 62,9.32842712 62,8.5 C62,7.67157288 62.6715729,7 63.5,7 Z M108.5,7 C109.328427,7 110,7.67157288 110,8.5 C110,9.32842712 109.328427,10 108.5,10 C107.671573,10 107,9.32842712 107,8.5 C107,7.67157288 107.671573,7 108.5,7 Z M48.5,7 C49.3284271,7 50,7.67157288 50,8.5 C50,9.32842712 49.3284271,10 48.5,10 C47.6715729,10 47,9.32842712 47,8.5 C47,7.67157288 47.6715729,7 48.5,7 Z M93.5,7 C94.3284271,7 95,7.67157288 95,8.5 C95,9.32842712 94.3284271,10 93.5,10 C92.6715729,10 92,9.32842712 92,8.5 C92,7.67157288 92.6715729,7 93.5,7 Z M53.5,7 C54.3284271,7 55,7.67157288 55,8.5 C55,9.32842712 54.3284271,10 53.5,10 C52.6715729,10 52,9.32842712 52,8.5 C52,7.67157288 52.6715729,7 53.5,7 Z M43.5,7 C44.3284271,7 45,7.67157288 45,8.5 C45,9.32842712 44.3284271,10 43.5,10 C42.6715729,10 42,9.32842712 42,8.5 C42,7.67157288 42.6715729,7 43.5,7 Z M68.5,7 C69.3284271,7 70,7.67157288 70,8.5 C70,9.32842712 69.3284271,10 68.5,10 C67.6715729,10 67,9.32842712 67,8.5 C67,7.67157288 67.6715729,7 68.5,7 Z M63.5,2 C64.3284271,2 65,2.67157288 65,3.5 C65,4.32842712 64.3284271,5 63.5,5 C62.6715729,5 62,4.32842712 62,3.5 C62,2.67157288 62.6715729,2 63.5,2 Z M48.5,2 C49.3284271,2 50,2.67157288 50,3.5 C50,4.32842712 49.3284271,5 48.5,5 C47.6715729,5 47,4.32842712 47,3.5 C47,2.67157288 47.6715729,2 48.5,2 Z M33.5,2 C34.3284271,2 35,2.67157288 35,3.5 C35,4.32842712 34.3284271,5 33.5,5 C32.6715729,5 32,4.32842712 32,3.5 C32,2.67157288 32.6715729,2 33.5,2 Z M78.5,2 C79.3284271,2 80,2.67157288 80,3.5 C80,4.32842712 79.3284271,5 78.5,5 C77.6715729,5 77,4.32842712 77,3.5 C77,2.67157288 77.6715729,2 78.5,2 Z M38.5,2 C39.3284271,2 40,2.67157288 40,3.5 C40,4.32842712 39.3284271,5 38.5,5 C37.6715729,5 37,4.32842712 37,3.5 C37,2.67157288 37.6715729,2 38.5,2 Z M83.5,2 C84.3284271,2 85,2.67157288 85,3.5 C85,4.32842712 84.3284271,5 83.5,5 C82.6715729,5 82,4.32842712 82,3.5 C82,2.67157288 82.6715729,2 83.5,2 Z M88.5,2 C89.3284271,2 90,2.67157288 90,3.5 C90,4.32842712 89.3284271,5 88.5,5 C87.6715729,5 87,4.32842712 87,3.5 C87,2.67157288 87.6715729,2 88.5,2 Z M98.5,2 C99.3284271,2 100,2.67157288 100,3.5 C100,4.32842712 99.3284271,5 98.5,5 C97.6715729,5 97,4.32842712 97,3.5 C97,2.67157288 97.6715729,2 98.5,2 Z M58.5,2 C59.3284271,2 60,2.67157288 60,3.5 C60,4.32842712 59.3284271,5 58.5,5 C57.6715729,5 57,4.32842712 57,3.5 C57,2.67157288 57.6715729,2 58.5,2 Z M103.5,2 C104.328427,2 105,2.67157288 105,3.5 C105,4.32842712 104.328427,5 103.5,5 C102.671573,5 102,4.32842712 102,3.5 C102,2.67157288 102.671573,2 103.5,2 Z M28.5,2 C29.3284271,2 30,2.67157288 30,3.5 C30,4.32842712 29.3284271,5 28.5,5 C27.6715729,5 27,4.32842712 27,3.5 C27,2.67157288 27.6715729,2 28.5,2 Z M43.5,2 C44.3284271,2 45,2.67157288 45,3.5 C45,4.32842712 44.3284271,5 43.5,5 C42.6715729,5 42,4.32842712 42,3.5 C42,2.67157288 42.6715729,2 43.5,2 Z M93.5,2 C94.3284271,2 95,2.67157288 95,3.5 C95,4.32842712 94.3284271,5 93.5,5 C92.6715729,5 92,4.32842712 92,3.5 C92,2.67157288 92.6715729,2 93.5,2 Z M53.5,2 C54.3284271,2 55,2.67157288 55,3.5 C55,4.32842712 54.3284271,5 53.5,5 C52.6715729,5 52,4.32842712 52,3.5 C52,2.67157288 52.6715729,2 53.5,2 Z M73.5,2 C74.3284271,2 75,2.67157288 75,3.5 C75,4.32842712 74.3284271,5 73.5,5 C72.6715729,5 72,4.32842712 72,3.5 C72,2.67157288 72.6715729,2 73.5,2 Z M108.5,2 C109.328427,2 110,2.67157288 110,3.5 C110,4.32842712 109.328427,5 108.5,5 C107.671573,5 107,4.32842712 107,3.5 C107,2.67157288 107.671573,2 108.5,2 Z M68.5,2 C69.3284271,2 70,2.67157288 70,3.5 C70,4.32842712 69.3284271,5 68.5,5 C67.6715729,5 67,4.32842712 67,3.5 C67,2.67157288 67.6715729,2 68.5,2 Z M23.5,2 C24.3284271,2 25,2.67157288 25,3.5 C25,4.32842712 24.3284271,5 23.5,5 C22.6715729,5 22,4.32842712 22,3.5 C22,2.67157288 22.6715729,2 23.5,2 Z M43.5,-3 C44.3284271,-3 45,-2.32842712 45,-1.5 C45,-0.671572875 44.3284271,-6.82121026e-13 43.5,-6.82121026e-13 C42.6715729,-6.82121026e-13 42,-0.671572875 42,-1.5 C42,-2.32842712 42.6715729,-3 43.5,-3 Z M63.5,-3 C64.3284271,-3 65,-2.32842712 65,-1.5 C65,-0.671572875 64.3284271,-6.82121026e-13 63.5,-6.82121026e-13 C62.6715729,-6.82121026e-13 62,-0.671572875 62,-1.5 C62,-2.32842712 62.6715729,-3 63.5,-3 Z M108.5,-3 C109.328427,-3 110,-2.32842712 110,-1.5 C110,-0.671572875 109.328427,-6.82121026e-13 108.5,-6.82121026e-13 C107.671573,-6.82121026e-13 107,-0.671572875 107,-1.5 C107,-2.32842712 107.671573,-3 108.5,-3 Z M73.5,-3 C74.3284271,-3 75,-2.32842712 75,-1.5 C75,-0.671572875 74.3284271,-6.82121026e-13 73.5,-6.82121026e-13 C72.6715729,-6.82121026e-13 72,-0.671572875 72,-1.5 C72,-2.32842712 72.6715729,-3 73.5,-3 Z M33.5,-3 C34.3284271,-3 35,-2.32842712 35,-1.5 C35,-0.671572875 34.3284271,-6.82121026e-13 33.5,-6.82121026e-13 C32.6715729,-6.82121026e-13 32,-0.671572875 32,-1.5 C32,-2.32842712 32.6715729,-3 33.5,-3 Z M68.5,-3 C69.3284271,-3 70,-2.32842712 70,-1.5 C70,-0.671572875 69.3284271,-6.82121026e-13 68.5,-6.82121026e-13 C67.6715729,-6.82121026e-13 67,-0.671572875 67,-1.5 C67,-2.32842712 67.6715729,-3 68.5,-3 Z M78.5,-3 C79.3284271,-3 80,-2.32842712 80,-1.5 C80,-0.671572875 79.3284271,-6.82121026e-13 78.5,-6.82121026e-13 C77.6715729,-6.82121026e-13 77,-0.671572875 77,-1.5 C77,-2.32842712 77.6715729,-3 78.5,-3 Z M23.5,-3 C24.3284271,-3 25,-2.32842712 25,-1.5 C25,-0.671572875 24.3284271,-6.82121026e-13 23.5,-6.82121026e-13 C22.6715729,-6.82121026e-13 22,-0.671572875 22,-1.5 C22,-2.32842712 22.6715729,-3 23.5,-3 Z M38.5,-3 C39.3284271,-3 40,-2.32842712 40,-1.5 C40,-0.671572875 39.3284271,-6.82121026e-13 38.5,-6.82121026e-13 C37.6715729,-6.82121026e-13 37,-0.671572875 37,-1.5 C37,-2.32842712 37.6715729,-3 38.5,-3 Z M28.5,-3 C29.3284271,-3 30,-2.32842712 30,-1.5 C30,-0.671572875 29.3284271,-6.82121026e-13 28.5,-6.82121026e-13 C27.6715729,-6.82121026e-13 27,-0.671572875 27,-1.5 C27,-2.32842712 27.6715729,-3 28.5,-3 Z M83.5,-3 C84.3284271,-3 85,-2.32842712 85,-1.5 C85,-0.671572875 84.3284271,-6.82121026e-13 83.5,-6.82121026e-13 C82.6715729,-6.82121026e-13 82,-0.671572875 82,-1.5 C82,-2.32842712 82.6715729,-3 83.5,-3 Z M88.5,-3 C89.3284271,-3 90,-2.32842712 90,-1.5 C90,-0.671572875 89.3284271,-6.82121026e-13 88.5,-6.82121026e-13 C87.6715729,-6.82121026e-13 87,-0.671572875 87,-1.5 C87,-2.32842712 87.6715729,-3 88.5,-3 Z M48.5,-3 C49.3284271,-3 50,-2.32842712 50,-1.5 C50,-0.671572875 49.3284271,-6.82121026e-13 48.5,-6.82121026e-13 C47.6715729,-6.82121026e-13 47,-0.671572875 47,-1.5 C47,-2.32842712 47.6715729,-3 48.5,-3 Z M93.5,-3 C94.3284271,-3 95,-2.32842712 95,-1.5 C95,-0.671572875 94.3284271,-6.82121026e-13 93.5,-6.82121026e-13 C92.6715729,-6.82121026e-13 92,-0.671572875 92,-1.5 C92,-2.32842712 92.6715729,-3 93.5,-3 Z M53.5,-3 C54.3284271,-3 55,-2.32842712 55,-1.5 C55,-0.671572875 54.3284271,-6.82121026e-13 53.5,-6.82121026e-13 C52.6715729,-6.82121026e-13 52,-0.671572875 52,-1.5 C52,-2.32842712 52.6715729,-3 53.5,-3 Z M98.5,-3 C99.3284271,-3 100,-2.32842712 100,-1.5 C100,-0.671572875 99.3284271,-6.82121026e-13 98.5,-6.82121026e-13 C97.6715729,-6.82121026e-13 97,-0.671572875 97,-1.5 C97,-2.32842712 97.6715729,-3 98.5,-3 Z M58.5,-3 C59.3284271,-3 60,-2.32842712 60,-1.5 C60,-0.671572875 59.3284271,-6.82121026e-13 58.5,-6.82121026e-13 C57.6715729,-6.82121026e-13 57,-0.671572875 57,-1.5 C57,-2.32842712 57.6715729,-3 58.5,-3 Z M103.5,-3 C104.328427,-3 105,-2.32842712 105,-1.5 C105,-0.671572875 104.328427,-6.82121026e-13 103.5,-6.82121026e-13 C102.671573,-6.82121026e-13 102,-0.671572875 102,-1.5 C102,-2.32842712 102.671573,-3 103.5,-3 Z" id="Combined-Shape" fill="#C3FCF2" mask="url(#mask-2)"></path>
            <path d="M53.0000398,1.02185195 L53.0008218,21.0362953 C60.9481392,21.4215242 68.0971689,24.8503631 73.3087931,30.2418555 C78.4675262,35.5786314 81.7291677,42.8397055 81.9802288,50.9772382 L101.990732,50.5226691 C101.7334,36.9655227 96.1336232,24.7158383 87.2088924,15.7911076 C78.3990057,6.98122084 66.3491862,1.41126698 53.0000398,1.02185195 Z" id="Mask" stroke="#C3FCF2" stroke-width="2" mask="url(#mask-2)"></path>
        </g>
    </g>
</svg>