<?xml version="1.0" encoding="UTF-8"?>
<svg width="140px" height="140px" viewBox="0 0 140 140" version="1.1" xmlns="http://www.w3.org/2000/svg" xmlns:xlink="http://www.w3.org/1999/xlink">
    <title>Group 31</title>
    <defs>
        <linearGradient x1="50%" y1="0%" x2="50%" y2="100%" id="linearGradient-1">
            <stop stop-color="#C3FCF2" offset="0%"></stop>
            <stop stop-color="#88C0B6" offset="100%"></stop>
        </linearGradient>
    </defs>
    <g id="Desktop" stroke="none" stroke-width="1" fill="none" fill-rule="evenodd">
        <g id="Group-31">
            <path d="M87.5,10.1036297 L113.121778,24.8963703 C123.950816,31.1485181 130.621778,42.7029638 130.621778,55.2072594 L130.621778,84.7927406 C130.621778,97.2970362 123.950816,108.851482 113.121778,115.10363 L87.5,129.89637 C76.6709623,136.148518 63.3290377,136.148518 52.5,129.89637 L26.8782217,115.10363 C16.049184,108.851482 9.37822174,97.2970362 9.37822174,84.7927406 L9.37822174,55.2072594 C9.37822174,42.7029638 16.049184,31.1485181 26.8782217,24.8963703 L52.5,10.1036297 C63.3290377,3.85148189 76.6709623,3.85148189 87.5,10.1036297 Z" id="Polygon" fill="url(#linearGradient-1)" opacity="0.3"></path>
            <polygon id="Path-8" fill-opacity="0.2" fill="#4B8178" points="69.2000372 75.6723491 80.7076484 70.6062809 92.3990945 75.6723491 92.3990945 86.013686 89.8038695 91.6467303 80.7995658 98.5190387 73.5556775 93.9866453 69.2000372 86.013686"></polygon>
            <path d="M94.7325313,49.0001094 C96.5342656,49.0001094 98.0001094,50.4660625 98.0001094,52.2676875 L98.0001094,52.2676875 L98.0001094,82.9203594 C98.0001094,84.721875 96.5342656,86.1877187 94.7325313,86.1877187 L94.7325313,86.1877187 L93.1149844,86.1877187 C92.1387031,90.3187031 89.9306406,93.2444844 88.0009375,95.1190625 C85.1842031,97.8554062 81.9554531,99.3125 80.7077031,99.3125 C79.4598438,99.3125 76.2310938,97.8552969 73.4144688,95.1189531 C71.4847656,93.2444844 69.2768125,90.3187031 68.3004219,86.1876094 L68.3004219,86.1876094 L45.2675781,86.1876094 C43.4657344,86.1876094 42,84.7217656 42,82.92025 L42,82.92025 L42,52.2676875 C42,50.4660625 43.4657344,49.0001094 45.2675781,49.0001094 L45.2675781,49.0001094 Z M80.7080313,71.7807344 C77.2672031,73.7394219 73.7435781,75.229875 69.9777969,76.3189219 L69.9777969,76.3189219 L69.9777969,81.7052031 C69.9777969,87.4679531 72.6379063,91.2905 74.869375,93.4824844 C77.5165781,96.0827656 80.2321406,97.0940469 80.7077031,97.1247812 C81.1831563,97.0940469 83.8986094,96.0826562 86.5458125,93.4824844 C88.7775,91.2905 91.4375,87.4679531 91.4375,81.7052031 L91.4375,81.7052031 L91.4375,76.3182656 C87.752875,75.2463906 84.0713125,73.6896562 80.7080313,71.7807344 Z M85.1647344,80.1902344 C85.5920625,79.7632344 86.2845156,79.7634531 86.7114063,80.1903437 C87.1385156,80.6176719 87.1385156,81.3102344 86.7112969,81.7372344 L86.7112969,81.7372344 L80.0889688,88.359125 C79.8755781,88.5727344 79.5955781,88.6795937 79.3156875,88.6795937 C79.0357969,88.6795937 78.7559063,88.5727344 78.5422969,88.359125 L78.5422969,88.359125 L74.7037813,84.5205 C74.2765625,84.0933906 74.2766719,83.4008281 74.7037813,82.9736094 C75.1308906,82.5466094 75.8234531,82.5468281 76.2506719,82.9736094 L76.2506719,82.9736094 L79.3156875,86.0388437 Z M95.8126094,64.3123906 L44.1875,64.3123906 L44.1875,82.92025 C44.1875,83.5155781 44.6720313,84.0001094 45.2675781,84.0001094 L45.2675781,84.0001094 L67.9200156,84.0001094 C67.836125,83.2671875 67.7902969,82.502875 67.7902969,81.7052031 L67.7902969,81.7052031 L67.7902969,75.4896406 C67.7902969,74.9960312 68.1210469,74.5636719 68.597375,74.4341719 C72.6832969,73.3243437 76.4638438,71.7347969 80.1550313,69.5742031 C80.4965,69.3744844 80.9189063,69.3742656 81.2601563,69.5739844 C84.849625,71.6749687 88.8462969,73.355625 92.8180313,74.4341719 C93.2943594,74.5635625 93.6251094,74.9959219 93.6251094,75.4896406 L93.6251094,75.4896406 L93.6251094,81.7052031 C93.6251094,82.502875 93.5791719,83.2671875 93.4953906,84.0001094 L93.4953906,84.0001094 L94.7325313,84.0001094 C95.3279688,84.0001094 95.8126094,83.5156875 95.8126094,82.92025 L95.8126094,82.92025 L95.8126094,64.3123906 Z M55.1246719,69.9690781 C57.8387031,69.9690781 60.0467656,72.1769219 60.0467656,74.8907344 C60.0467656,77.6045469 57.8387031,79.8126094 55.1246719,79.8126094 C54.46525,79.8126094 53.8141406,79.6792812 53.211375,79.4250937 C52.6227188,79.6745781 51.9756563,79.8126094 51.2970938,79.8126094 C48.5830625,79.8126094 46.3751094,77.6045469 46.3751094,74.8907344 C46.3751094,72.1769219 48.5831719,69.9690781 51.2970938,69.9690781 C51.9756563,69.9690781 52.6227188,70.1071094 53.2114844,70.3565937 C53.8141406,70.1024062 54.46525,69.9690781 55.1246719,69.9690781 Z M51.2970938,72.1565781 C49.78925,72.1565781 48.5626094,73.383 48.5626094,74.8907344 C48.5626094,76.3985781 49.78925,77.6251094 51.2970938,77.6251094 C52.8047188,77.6251094 54.0313594,76.3984687 54.0313594,74.8907344 C54.0313594,73.383 52.8047188,72.1565781 51.2970938,72.1565781 Z M55.3959219,72.1701406 C55.9153438,72.9500937 56.2188594,73.8855781 56.2188594,74.8908437 C56.2188594,75.8961094 55.9153438,76.8318125 55.3958125,77.6117656 C56.7767813,77.4751562 57.8591563,76.3069219 57.8591563,74.8908437 C57.8591563,73.4747656 56.7767813,72.3066406 55.3959219,72.1701406 Z M95.8126094,57.7502187 L44.1875,57.7502187 L44.1875,62.125 L95.8126094,62.125 L95.8126094,57.7502187 Z M94.7325313,51.1876094 L45.2675781,51.1876094 C44.6720313,51.1876094 44.1875,51.6721406 44.1875,52.2676875 L44.1875,52.2676875 L44.1875,55.5626094 L95.8126094,55.5626094 L95.8126094,52.2676875 C95.8126094,51.6721406 95.3279688,51.1876094 94.7325313,51.1876094 L94.7325313,51.1876094 Z" id="Combined-Shape" fill="#005248" fill-rule="nonzero"></path>
        </g>
    </g>
</svg>