<?xml version="1.0" encoding="UTF-8"?>
<svg width="140px" height="140px" viewBox="0 0 140 140" version="1.1" xmlns="http://www.w3.org/2000/svg" xmlns:xlink="http://www.w3.org/1999/xlink">
    <title>Group 30</title>
    <defs>
        <linearGradient x1="50%" y1="0%" x2="50%" y2="100%" id="linearGradient-1">
            <stop stop-color="#C3FCF2" offset="0%"></stop>
            <stop stop-color="#88C0B6" offset="100%"></stop>
        </linearGradient>
    </defs>
    <g id="Desktop" stroke="none" stroke-width="1" fill="none" fill-rule="evenodd">
        <g id="Group-30">
            <path d="M87.5,10.1036297 L113.121778,24.8963703 C123.950816,31.1485181 130.621778,42.7029638 130.621778,55.2072594 L130.621778,84.7927406 C130.621778,97.2970362 123.950816,108.851482 113.121778,115.10363 L87.5,129.89637 C76.6709623,136.148518 63.3290377,136.148518 52.5,129.89637 L26.8782217,115.10363 C16.049184,108.851482 9.37822174,97.2970362 9.37822174,84.7927406 L9.37822174,55.2072594 C9.37822174,42.7029638 16.049184,31.1485181 26.8782217,24.8963703 L52.5,10.1036297 C63.3290377,3.85148189 76.6709623,3.85148189 87.5,10.1036297 Z" id="Polygon" fill="url(#linearGradient-1)" opacity="0.3"></path>
            <polygon id="Rectangle" fill-opacity="0.2" fill="#4B8178" points="49 43 75 43 74.6666667 65.3333333 72.3368547 64 69.0666667 66.1362686 69.0666667 76.0151731 72.3368547 85 49 85 49 71.7094092 53.4280696 71.7094092 56.278364 70.1614225 56.278364 66.1362686 53.4280696 64.4 49 64.4"></polygon>
            <path d="M72.8,42 C74.3444826,42.0046127 75.5953873,43.2555174 75.6,44.8 L75.6,44.8 L75.6,48.1133333 C76.1654357,47.7791139 76.8098436,47.6019018 77.4666667,47.6 C79.5285297,47.6 81.2,49.2714703 81.2,51.3333333 L81.2,51.3333333 L81.2,66.78 C81.7654357,66.4457806 82.4098436,66.2685684 83.0666667,66.2666667 C84.3833503,66.27214 85.5997887,66.9707941 86.268,68.1053333 C86.6121661,67.8019432 87.0113966,67.5674744 87.444,67.4146667 C87.8344512,67.2669379 88.2492445,67.1941116 88.6666667,67.2 C89.9798273,67.2004221 91.194471,67.8965337 91.8586667,69.0293333 C93.3336567,67.7630324 95.5356083,67.8485056 96.908,69.2253333 C97.6079573,69.9260692 98.0007788,70.8762272 98,71.8666667 L98,71.8666667 L98,75.5626667 C97.9988776,76.3102872 97.8694429,77.0521687 97.6173333,77.756 L97.6173333,77.756 L93.3333333,89.7586667 L93.3333333,97.0666667 C93.3333333,97.5821324 92.9154658,98 92.4,98 L92.4,98 L73.7333333,98 C73.2178676,98 72.8,97.5821324 72.8,97.0666667 L72.8,97.0666667 L72.8,89.7586667 L71.7453333,86.8 L69.7386667,86.8 L66.2666667,91.7653333 L66.2666667,97.0666667 C66.2666667,97.5821324 65.8487991,98 65.3333333,98 L65.3333333,98 L44.8,98 C44.2845342,98 43.8666667,97.5821324 43.8666667,97.0666667 L43.8666667,97.0666667 L43.8666667,91.5133333 L42,71.9506667 L42,68.1333333 C42,65.5560045 44.0893378,63.4666667 46.6666667,63.4666667 L46.6666667,63.4666667 L47.6,63.4666667 L47.6,44.8 C47.6046127,43.2555174 48.8555174,42.0046127 50.4,42 L50.4,42 Z M64.4,92.4 L45.7333333,92.4 L45.7333333,96.1333333 L64.4,96.1333333 L64.4,92.4 Z M77.4666667,90.5333333 L74.6666667,90.5333333 L74.6666667,96.1333333 L77.4666667,96.1333333 L77.4666667,90.5333333 Z M82.1333333,90.5333333 L79.3333333,90.5333333 L79.3333333,96.1333333 L82.1333333,96.1333333 L82.1333333,90.5333333 Z M86.8,90.5333333 L84,90.5333333 L84,96.1333333 L86.8,96.1333333 L86.8,90.5333333 Z M91.4666667,90.5333333 L88.6666667,90.5333333 L88.6666667,96.1333333 L91.4666667,96.1333333 L91.4666667,90.5333333 Z M53.2,65.3333333 L46.6666667,65.3333333 C45.1221841,65.3379461 43.8712794,66.5888507 43.8666667,68.1333333 L43.8666667,68.1333333 L43.8666667,71.8666667 L45.6493333,90.5333333 L64.848,90.5333333 L67.4613333,86.8 L50.4,86.8 C48.8555174,86.7953873 47.6046127,85.5444826 47.6,84 L47.6,84 L47.6,71.8666667 C47.6,71.3512009 48.0178676,70.9333333 48.5333333,70.9333333 L48.5333333,70.9333333 L53.2,70.9333333 C54.7463973,70.9333333 56,69.6797306 56,68.1333333 C56,66.586936 54.7463973,65.3333333 53.2,65.3333333 L53.2,65.3333333 Z M77.4666667,49.4666667 C76.4389091,49.4742894 75.6076227,50.3055758 75.6,51.3333333 L75.6,51.3333333 L75.6,74.6666667 L73.7333333,74.6666667 L73.7333333,67.2 C73.7359106,66.1690685 72.9022648,65.3312441 71.8713333,65.3286667 C70.8404018,65.3260894 70.0025774,66.1597352 70,67.1906667 L70,67.1906667 L70,75.5626667 C70.0018994,76.099836 70.0933766,76.6329272 70.2706667,77.14 L70.2706667,77.14 L74.3866667,88.6666667 L91.7466667,88.6666667 L95.8626667,77.1306667 C96.0406961,76.627011 96.1322103,76.0968597 96.1333333,75.5626667 L96.1333333,75.5626667 L96.1333333,71.8666667 C96.1257106,70.8389091 95.2944242,70.0076227 94.2666667,70 C93.2370116,70.0030751 92.4030751,70.8370116 92.4,71.8666667 L92.4,71.8666667 L92.4,75.6 L90.5333333,75.6 L90.5333333,70.9333333 C90.5302582,69.9036783 89.6963217,69.0697418 88.6666667,69.0666667 C88.4630886,69.0657519 88.2609233,69.100499 88.0693333,69.1693333 C87.795452,69.2548474 87.5480357,69.4090809 87.3506667,69.6173333 C86.9986351,69.9647937 86.8003308,70.4387074 86.8,70.9333333 L86.8,70.9333333 L86.8,74.6666667 L84.9333333,74.6666667 L84.9333333,70 C84.9302582,68.9703449 84.0963217,68.1364085 83.0666667,68.1333333 C82.0389091,68.1409561 81.2076227,68.9722425 81.2,70 L81.2,70 L81.2,74.6666667 L79.3333333,74.6666667 L79.3333333,51.3333333 C79.3302582,50.3036783 78.4963217,49.4697418 77.4666667,49.4666667 Z M72.8,43.8666667 L50.4,43.8666667 C49.8845342,43.8666667 49.4666667,44.2845342 49.4666667,44.8 L49.4666667,44.8 L49.4666667,63.4666667 L53.2,63.4666667 C55.7773288,63.4666667 57.8666667,65.5560045 57.8666667,68.1333333 C57.8666667,70.7106622 55.7773288,72.8 53.2,72.8 L53.2,72.8 L49.4666667,72.8 L49.4666667,79.3333333 L66.2666667,79.3333333 L66.2666667,81.2 L49.4666667,81.2 L49.4666667,84 C49.4666667,84.5154658 49.8845342,84.9333333 50.4,84.9333333 L50.4,84.9333333 L71.0733333,84.9333333 L68.516,77.7653333 C68.2646177,77.0580821 68.1352211,76.3132623 68.1333333,75.5626667 L68.1333333,75.5626667 L68.1333333,67.1906667 C68.1384634,65.136087 69.8027536,63.4717967 71.8573333,63.4666667 C72.5183574,63.4685309 73.1665734,63.6491284 73.7333333,63.9893333 L73.7333333,63.9893333 L73.7333333,44.8 C73.7333333,44.2845342 73.3154658,43.8666667 72.8,43.8666667 L72.8,43.8666667 Z M61.6,45.7333333 C66.751248,45.7415556 70.9251111,49.9154186 70.9333333,55.0666667 C70.9333333,60.2213243 66.7546577,64.4 61.6,64.4 C56.4453423,64.4 52.2666667,60.2213243 52.2666667,55.0666667 C52.2666667,49.912009 56.4453423,45.7333333 61.6,45.7333333 Z M61.6,47.6 C57.4762739,47.6 54.1333333,50.9429405 54.1333333,55.0666667 C54.1333333,59.1903928 57.4762739,62.5333333 61.6,62.5333333 C65.7213814,62.5276781 69.0610114,59.188048 69.0666667,55.0666667 C69.0666667,50.9429405 65.7237261,47.6 61.6,47.6 Z M87.0734667,53.4734667 L88.3932,54.7932 L86.2530667,56.9333333 L97.0666667,56.9333333 L97.0666667,58.8 L86.2530667,58.8 L88.3932,60.9401333 L87.0734667,62.2598667 L83.3401333,58.5265333 C82.9757769,58.1620668 82.9757769,57.5712665 83.3401333,57.2068 L83.3401333,57.2068 L87.0734667,53.4734667 Z M62.5333333,49.4666667 L62.5333333,50.568 C63.6475949,50.9648818 64.3939076,52.0171827 64.4,53.2 L62.5333333,53.2 C62.5333333,52.6845342 62.1154658,52.2666667 61.6,52.2666667 C61.0845342,52.2666667 60.6666667,52.6845342 60.6666667,53.2 C60.6666667,53.7154658 61.0845342,54.1333333 61.6,54.1333333 C63.1444826,54.1379461 64.3953873,55.3888507 64.4,56.9333333 C64.3939076,58.1161507 63.6475949,59.1684516 62.5333333,59.5653333 L62.5333333,60.6666667 L60.6666667,60.6666667 L60.6666667,59.5653333 C59.5524051,59.1684516 58.8060924,58.1161507 58.8,56.9333333 L60.6666667,56.9333333 C60.6666667,57.4487991 61.0845342,57.8666667 61.6,57.8666667 C62.1154658,57.8666667 62.5333333,57.4487991 62.5333333,56.9333333 C62.5333333,56.4178676 62.1154658,56 61.6,56 C60.2447955,55.9894858 59.0916583,55.0099083 58.8621613,53.6742357 C58.6326643,52.3385632 59.3926953,51.0302627 60.6666667,50.568 L60.6666667,49.4666667 L62.5333333,49.4666667 Z M93.9932,46.0068 L97.7265333,49.7401333 C98.0908898,50.1045999 98.0908898,50.6954001 97.7265333,51.0598667 L97.7265333,51.0598667 L93.9932,54.7932 L92.6734667,53.4734667 L94.8136,51.3333333 L84,51.3333333 L84,49.4666667 L94.8136,49.4666667 L92.6734667,47.3265333 L93.9932,46.0068 Z" id="Combined-Shape" fill="#005248" fill-rule="nonzero"></path>
        </g>
    </g>
</svg>