<?xml version="1.0" encoding="UTF-8"?>
<svg width="16px" height="16px" viewBox="0 0 16 16" version="1.1" xmlns="http://www.w3.org/2000/svg" xmlns:xlink="http://www.w3.org/1999/xlink">
    <title>Combined Shape</title>
    <g id="Symbols" stroke="none" stroke-width="1" fill="none" fill-rule="evenodd">
        <path d="M7.99194338,0 C10.1199951,0.00085449375 12.1195068,0.826049812 13.6225586,2.32348631 C15.1464844,3.84191894 15.9852295,5.83374025 15.9846195,7.93200684 C15.9836426,10.045166 15.1478272,12.0355225 13.6308594,13.5363769 C12.1176758,15.0335693 10.1149903,15.8581543 7.99206544,15.8581543 L7.99206544,15.8581543 C6.74182128,15.857666 5.50537109,15.5632324 4.39721681,15.0047607 L4.39721681,15.0047607 L0.0218505938,16 L0.97351075,11.6744385 C0.336059563,10.4974365 0.000244140625,9.20800781 2.39808173e-14,7.92980956 L2.39808173e-14,7.92980956 C0.001953125,5.81408691 0.837402344,3.821167 2.35302734,2.32153319 C3.86596681,0.824462875 5.86865234,0 7.99194338,0 Z M7.99169922,1.24877931 C4.27575684,1.24877931 1.25109863,4.24719238 1.24877931,7.92846681 C1.24877931,9.06579591 1.56884766,10.2188721 2.17456056,11.2634278 L2.17456056,11.2634278 L2.29638672,11.4735108 L1.66442872,14.3455811 L4.57385253,13.6838379 L4.78076172,13.7961426 C5.75988769,14.3277588 6.86938475,14.6088867 7.98913575,14.609375 L7.98913575,14.609375 C11.7089844,14.609375 14.7342529,11.6137695 14.7357182,7.93164063 C14.7363281,6.16784669 14.0279541,4.49035644 12.7412109,3.20812988 C11.4736328,1.94543456 9.78686525,1.24951172 7.99169922,1.24877931 Z M5.81726075,4.43322753 C5.94750975,4.43859863 6.09167481,4.44885253 6.22863769,4.75231934 L6.22863769,4.75231934 L6.26915504,4.84446004 C6.44328209,5.24649464 6.74546463,6.02068622 6.78771972,6.10485841 C6.83337403,6.19592284 6.86389159,6.30236816 6.8029785,6.42395019 C6.74194338,6.54553222 6.71594238,6.62145997 6.62463378,6.72790528 C6.53320313,6.8342285 6.42224122,6.94580078 6.34008788,7.02734375 C6.24841309,7.11828613 6.15319825,7.21691894 6.25976563,7.39916994 C6.36645506,7.58154297 6.74365234,8.19750975 7.28723144,8.680542 C7.98559569,9.30114747 8.56835938,9.49694825 8.75122069,9.58837891 C8.93408203,9.67956544 9.0407715,9.66430662 9.14733888,9.54260253 C9.25402831,9.4210205 9.61303713,8.99963378 9.73498534,8.81750487 C9.85693359,8.63500975 9.97875975,8.66540528 10.1463623,8.72607422 C10.3139648,8.78698731 11.2099609,9.2352295 11.3928223,9.326416 C11.5755615,9.41748047 11.6975098,9.46301269 11.7432861,9.53894044 C11.7889404,9.61511231 11.7889404,9.97985841 11.6365967,10.4052734 C11.4842529,10.8306885 10.737793,11.2410889 10.4025879,11.2713623 C10.0675049,11.3017578 9.75317381,11.4224853 8.20886231,10.8155518 C6.350708,10.0852051 5.17749025,8.18676756 5.08605956,8.06518556 C4.99475097,7.94348144 4.33959963,7.0772705 4.33959963,6.18078613 C4.33959963,5.28430175 4.81188966,4.84350588 4.97949219,4.66113281 C5.14697266,4.47888184 5.34497069,4.43322753 5.46691894,4.43322753 L5.46691894,4.43322753 Z" id="Combined-Shape" fill="#808695" fill-rule="nonzero"></path>
    </g>
</svg>