<?xml version="1.0" encoding="UTF-8"?>
<svg width="14px" height="14px" viewBox="0 0 14 14" version="1.1" xmlns="http://www.w3.org/2000/svg" xmlns:xlink="http://www.w3.org/1999/xlink">
    <title>Combined Shape</title>
    <g id="Desktop" stroke="none" stroke-width="1" fill="none" fill-rule="evenodd">
        <path d="M7.41015625,0 L7.41015625,1.25641797 C10.2591016,1.45791406 12.5420859,3.74089844 12.743582,6.58984375 L12.743582,6.58984375 L14,6.58984375 L14,7.41015625 L12.743582,7.41015625 C12.5420859,10.2591016 10.2591016,12.5420859 7.41015625,12.743582 L7.41015625,12.743582 L7.41015625,14 L6.58984375,14 L6.58984375,12.743582 C3.74089844,12.5420859 1.45791406,10.2591016 1.25641797,7.41015625 L1.25641797,7.41015625 L0,7.41015625 L0,6.58984375 L1.25641797,6.58984375 C1.45791406,3.74089844 3.74089844,1.45791406 6.58984375,1.25641797 L6.58984375,1.25641797 L6.58984375,0 L7.41015625,0 Z M7.41015625,2.07913672 L7.41015625,2.74033594 L6.58984375,2.74033594 L6.58984375,2.07913672 C4.19349219,2.27713281 2.27713281,4.19349219 2.07913672,6.58984375 L2.07913672,6.58984375 L2.74033594,6.58984375 L2.74033594,7.41015625 L2.07913672,7.41015625 C2.27713281,9.80650781 4.19349219,11.7228672 6.58984375,11.9208633 L6.58984375,11.9208633 L6.58984375,11.2596641 L7.41015625,11.2596641 L7.41015625,11.9208633 C9.80650781,11.7228672 11.7228672,9.80650781 11.9208633,7.41015625 L11.9208633,7.41015625 L11.2596641,7.41015625 L11.2596641,6.58984375 L11.9208633,6.58984375 C11.7228672,4.19349219 9.80650781,2.27713281 7.41015625,2.07913672 L7.41015625,2.07913672 Z M7,3.67322266 C8.83438281,3.67322266 10.3267773,5.16561719 10.3267773,7 C10.3267773,8.83438281 8.83438281,10.3267773 7,10.3267773 C5.16561719,10.3267773 3.67322266,8.83438281 3.67322266,7 C3.67322266,5.16561719 5.16561719,3.67322266 7,3.67322266 Z M7,4.49353516 C5.6179375,4.49353516 4.49353516,5.6179375 4.49353516,7 C4.49353516,8.3820625 5.6179375,9.50646484 7,9.50646484 C8.3820625,9.50646484 9.50646484,8.3820625 9.50646484,7 C9.50646484,5.6179375 8.3820625,4.49353516 7,4.49353516 Z M7,5.17652734 C8.00545703,5.17652734 8.82347266,5.99451563 8.82347266,7 C8.82347266,8.00548437 8.00548437,8.82347266 7,8.82347266 C5.99451562,8.82347266 5.17652734,8.00548437 5.17652734,7 C5.17652734,5.99451562 5.99454297,5.17652734 7,5.17652734 Z" id="Combined-Shape" fill="#4B8178" fill-rule="nonzero"></path>
    </g>
</svg>