<?xml version="1.0" encoding="UTF-8"?>
<svg width="17px" height="16px" viewBox="0 0 17 16" version="1.1" xmlns="http://www.w3.org/2000/svg" xmlns:xlink="http://www.w3.org/1999/xlink">
    <title>business-and-trade</title>
    <defs>
        <filter id="filter-1">
            <feColorMatrix in="SourceGraphic" type="matrix" values="0 0 0 0 0.000000 0 0 0 0 0.321569 0 0 0 0 0.282353 0 0 0 1.000000 0"></feColorMatrix>
        </filter>
    </defs>
    <g id="Desktop" stroke="none" stroke-width="1" fill="none" fill-rule="evenodd">
        <g filter="url(#filter-1)" id="business-and-trade">
            <g>
                <path d="M9.36993464,5.98964706 L15.2663007,7.16088889 C15.7414902,7.26128105 16.0627451,7.66284967 16.0627451,8.13803922 L16.0627451,14.9647059 C16.0627451,15.5202092 15.6143268,15.9686275 15.0588235,15.9686275 L9.03529412,15.9686275 C9.22269281,15.9686275 9.36993464,15.8213856 9.36993464,15.6339869 L9.36993464,15.2993464 L15.0588235,15.2993464 C15.2395294,15.2993464 15.3934641,15.1521046 15.3934641,14.9647059 L15.3934641,8.13803922 C15.3934641,7.98410458 15.2863791,7.84355556 15.1324444,7.8100915 L9.36993464,6.67231373 L9.36993464,5.98964706 Z" id="Path" fill="#000000" fill-rule="nonzero"></path>
                <path d="M13.0509804,9.27581699 C13.2383791,9.27581699 13.3856209,9.42305882 13.3856209,9.61045752 C13.3856209,9.79785621 13.2383791,9.94509804 13.0509804,9.94509804 L11.7124183,9.94509804 C11.5250196,9.94509804 11.3777778,9.79785621 11.3777778,9.61045752 C11.3777778,9.42305882 11.5250196,9.27581699 11.7124183,9.27581699 L13.0509804,9.27581699 Z" id="Path" fill="#000000" fill-rule="nonzero"></path>
                <path d="M13.0509804,11.2836601 C13.2383791,11.2836601 13.3856209,11.430902 13.3856209,11.6183007 C13.3856209,11.8056993 13.2383791,11.9529412 13.0509804,11.9529412 L11.7124183,11.9529412 C11.5250196,11.9529412 11.3777778,11.8056993 11.3777778,11.6183007 C11.3777778,11.430902 11.5250196,11.2836601 11.7124183,11.2836601 L13.0509804,11.2836601 Z" id="Path" fill="#000000" fill-rule="nonzero"></path>
                <path d="M13.0509804,13.2915033 C13.2383791,13.2915033 13.3856209,13.4387451 13.3856209,13.6261438 C13.3856209,13.8135425 13.2383791,13.9607843 13.0509804,13.9607843 L11.7124183,13.9607843 C11.5250196,13.9607843 11.3777778,13.8135425 11.3777778,13.6261438 C11.3777778,13.4387451 11.5250196,13.2915033 11.7124183,13.2915033 L13.0509804,13.2915033 Z" id="Path" fill="#000000" fill-rule="nonzero"></path>
                <path d="M9.36993464,15.6339869 C9.36993464,15.8213856 9.22269281,15.9686275 9.03529412,15.9686275 C8.84789542,15.9686275 8.70065359,15.8213856 8.70065359,15.6339869 L8.70065359,15.2993464 L8.70065359,6.26405229 C8.70065359,6.16366013 8.74750327,6.06996078 8.82112418,6.00303268 C8.90143791,5.94279739 9.00183007,5.91602614 9.10222222,5.93610458 L9.36993464,5.98964706 L9.36993464,6.67231373 L9.36993464,15.2993464 L9.36993464,15.6339869 Z" id="Path" fill="#000000" fill-rule="nonzero"></path>
                <path d="M8.70065359,15.2993464 L8.70065359,15.6339869 C8.70065359,15.8213856 8.84789542,15.9686275 9.03529412,15.9686275 L6.35816993,15.9686275 C6.54556863,15.9686275 6.69281046,15.8213856 6.69281046,15.6339869 L6.69281046,15.2993464 L8.70065359,15.2993464 Z" id="Path" fill="#000000" fill-rule="nonzero"></path>
                <path d="M7.02745098,3.25228758 C7.21484967,3.25228758 7.3620915,3.39952941 7.3620915,3.5869281 C7.3620915,3.7743268 7.21484967,3.92156863 7.02745098,3.92156863 L5.68888889,3.92156863 C5.5014902,3.92156863 5.35424837,3.7743268 5.35424837,3.5869281 C5.35424837,3.39952941 5.5014902,3.25228758 5.68888889,3.25228758 L7.02745098,3.25228758 Z" id="Path" fill="#000000" fill-rule="nonzero"></path>
                <path d="M7.3620915,5.59477124 C7.3620915,5.78216993 7.21484967,5.92941176 7.02745098,5.92941176 L5.68888889,5.92941176 C5.5014902,5.92941176 5.35424837,5.78216993 5.35424837,5.59477124 C5.35424837,5.40737255 5.5014902,5.26013072 5.68888889,5.26013072 L7.02745098,5.26013072 C7.21484967,5.26013072 7.3620915,5.40737255 7.3620915,5.59477124 Z" id="Path" fill="#000000" fill-rule="nonzero"></path>
                <path d="M7.02745098,7.26797386 C7.21484967,7.26797386 7.3620915,7.41521569 7.3620915,7.60261438 C7.3620915,7.79001307 7.21484967,7.9372549 7.02745098,7.9372549 L5.68888889,7.9372549 C5.5014902,7.9372549 5.35424837,7.79001307 5.35424837,7.60261438 C5.35424837,7.41521569 5.5014902,7.26797386 5.68888889,7.26797386 L7.02745098,7.26797386 Z" id="Path" fill="#000000" fill-rule="nonzero"></path>
                <path d="M7.02745098,9.27581699 C7.21484967,9.27581699 7.3620915,9.42305882 7.3620915,9.61045752 C7.3620915,9.79785621 7.21484967,9.94509804 7.02745098,9.94509804 L5.68888889,9.94509804 C5.5014902,9.94509804 5.35424837,9.79785621 5.35424837,9.61045752 C5.35424837,9.42305882 5.5014902,9.27581699 5.68888889,9.27581699 L7.02745098,9.27581699 Z" id="Path" fill="#000000" fill-rule="nonzero"></path>
                <path d="M4.01568627,9.61045752 C4.01568627,9.79785621 3.86844444,9.94509804 3.68104575,9.94509804 L2.34248366,9.94509804 C2.15508497,9.94509804 2.00784314,9.79785621 2.00784314,9.61045752 C2.00784314,9.42305882 2.15508497,9.27581699 2.34248366,9.27581699 L3.68104575,9.27581699 C3.86844444,9.27581699 4.01568627,9.42305882 4.01568627,9.61045752 Z" id="Path" fill="#000000" fill-rule="nonzero"></path>
                <path d="M3.68104575,3.25228758 C3.86844444,3.25228758 4.01568627,3.39952941 4.01568627,3.5869281 C4.01568627,3.7743268 3.86844444,3.92156863 3.68104575,3.92156863 L2.34248366,3.92156863 C2.15508497,3.92156863 2.00784314,3.7743268 2.00784314,3.5869281 C2.00784314,3.39952941 2.15508497,3.25228758 2.34248366,3.25228758 L3.68104575,3.25228758 Z" id="Path" fill="#000000" fill-rule="nonzero"></path>
                <path d="M3.68104575,5.26013072 C3.86844444,5.26013072 4.01568627,5.40737255 4.01568627,5.59477124 C4.01568627,5.78216993 3.86844444,5.92941176 3.68104575,5.92941176 L2.34248366,5.92941176 C2.15508497,5.92941176 2.00784314,5.78216993 2.00784314,5.59477124 C2.00784314,5.40737255 2.15508497,5.26013072 2.34248366,5.26013072 L3.68104575,5.26013072 Z" id="Path" fill="#000000" fill-rule="nonzero"></path>
                <path d="M3.68104575,7.26797386 C3.86844444,7.26797386 4.01568627,7.41521569 4.01568627,7.60261438 C4.01568627,7.79001307 3.86844444,7.9372549 3.68104575,7.9372549 L2.34248366,7.9372549 C2.15508497,7.9372549 2.00784314,7.79001307 2.00784314,7.60261438 C2.00784314,7.41521569 2.15508497,7.26797386 2.34248366,7.26797386 L3.68104575,7.26797386 Z" id="Path" fill="#000000" fill-rule="nonzero"></path>
                <path d="M6.02352941,12.2875817 C6.02352941,12.100183 5.86959477,11.9529412 5.68888889,11.9529412 L3.68104575,11.9529412 C3.49364706,11.9529412 3.34640523,12.100183 3.34640523,12.2875817 L3.34640523,15.2993464 L2.67712418,15.2993464 L2.67712418,12.2875817 C2.67712418,11.7320784 3.12554248,11.2836601 3.68104575,11.2836601 L5.68888889,11.2836601 C6.24439216,11.2836601 6.69281046,11.7320784 6.69281046,12.2875817 L6.69281046,15.2993464 L6.02352941,15.2993464 L6.02352941,12.2875817 Z" id="Path" fill="#000000" fill-rule="nonzero"></path>
                <path d="M3.34640523,15.2993464 L6.02352941,15.2993464 L6.69281046,15.2993464 L6.69281046,15.6339869 C6.69281046,15.8213856 6.54556863,15.9686275 6.35816993,15.9686275 L3.01176471,15.9686275 C2.82436601,15.9686275 2.67712418,15.8213856 2.67712418,15.6339869 L2.67712418,15.2993464 L3.34640523,15.2993464 Z" id="Path" fill="#000000" fill-rule="nonzero"></path>
                <path d="M1.17124183,0.0397385621 L8.52664052,1.15743791 C9.01521569,1.23775163 9.36993464,1.65270588 9.36993464,2.14797386 L9.36993464,5.98964706 L9.10222222,5.93610458 C9.00183007,5.91602614 8.90143791,5.94279739 8.82112418,6.00303268 C8.74750327,6.06996078 8.70065359,6.16366013 8.70065359,6.26405229 L8.70065359,2.14797386 C8.70065359,1.98065359 8.58018301,1.84010458 8.41955556,1.81333333 L1.06415686,0.702326797 C1.04407843,0.695633987 1.024,0.695633987 1.00392157,0.695633987 C0.923607843,0.695633987 0.849986928,0.722405229 0.789751634,0.775947712 C0.709437908,0.842875817 0.669281046,0.929882353 0.669281046,1.03027451 L0.669281046,14.9647059 C0.669281046,15.1521046 0.823215686,15.2993464 1.00392157,15.2993464 L2.67712418,15.2993464 L2.67712418,15.6339869 C2.67712418,15.8213856 2.82436601,15.9686275 3.01176471,15.9686275 L1.00392157,15.9686275 C0.448418301,15.9686275 0,15.5202092 0,14.9647059 L0,1.03027451 C0,0.73579085 0.127163399,0.45469281 0.354718954,0.267294118 C0.58227451,0.0732026144 0.87675817,-0.00711111111 1.17124183,0.0397385621 Z" id="Path" fill="#000000" fill-rule="nonzero"></path>
            </g>
        </g>
    </g>
</svg>