<?xml version="1.0" encoding="UTF-8"?>
<svg width="16px" height="16px" viewBox="0 0 16 16" version="1.1" xmlns="http://www.w3.org/2000/svg" xmlns:xlink="http://www.w3.org/1999/xlink">
    <title>telephone</title>
    <defs>
        <filter id="filter-1">
            <feColorMatrix in="SourceGraphic" type="matrix" values="0 0 0 0 0.501961 0 0 0 0 0.525490 0 0 0 0 0.584314 0 0 0 1.000000 0"></feColorMatrix>
        </filter>
    </defs>
    <g id="Symbols" stroke="none" stroke-width="1" fill="none" fill-rule="evenodd">
        <g id="TopMenu" transform="translate(-150.000000, -7.000000)">
            <g id="Group-19-Copy" transform="translate(150.000000, 7.000000)">
                <g filter="url(#filter-1)" id="telephone">
                    <g>
                        <path d="M15.5887006,11.8010399 L13.5995814,9.81200725 C13.0511822,9.26366311 12.1588303,9.26366311 11.6104623,9.81200725 L10.7063286,10.7161017 C10.2908727,11.1315395 9.61484284,11.1314145 9.19954324,10.7162579 L5.28062007,6.79416133 C4.86419542,6.37775478 4.86413291,5.70378554 5.28062007,5.28731649 C5.4262515,5.14169139 5.84442623,4.72353483 6.18475377,4.38322209 C6.73074665,3.83728419 6.73837198,2.9477523 6.1842225,2.3936894 L4.19563462,0.411437974 C3.64723539,-0.136906172 2.75491471,-0.136906172 2.20798429,0.410000473 C1.7987162,0.815688265 1.66671037,0.94656336 1.48320226,1.12846974 C-0.494385128,3.10593992 -0.494385128,6.32353599 1.48310851,8.30094366 L7.6925079,14.5133231 C9.67472049,16.4954808 12.8829873,16.4956371 14.8653561,14.5133231 L15.5887006,13.7900414 C16.1370998,13.241666 16.1370998,12.3494153 15.5887006,11.8010399 Z M2.86957602,1.07443845 C3.05236535,0.89165707 3.34975349,0.89162582 3.5331366,1.07493845 L5.52172447,3.05718988 C5.70495132,3.24040876 5.70495132,3.53694023 5.52172447,3.72019036 L5.19017857,4.0516906 L2.53974895,1.40137619 L2.86957602,1.07443845 Z M8.3556622,13.8504164 L2.14623156,7.63797444 C0.61622645,6.10803583 0.532128983,3.70569035 1.88759513,2.07528292 L4.53033691,4.71790983 C3.83593123,5.50506665 3.86487001,6.70453626 4.61743451,7.45706806 L8.53623268,11.3789771 C8.53626393,11.3790084 8.53632643,11.3790709 8.53635769,11.3791021 C9.28810966,12.1308527 10.4875689,12.1616652 11.2757287,11.4663522 L13.918533,14.1090416 C12.2932425,15.4621051 9.89619903,15.3908863 8.3556622,13.8504164 Z M14.9257025,13.1270409 L14.5941566,13.4585724 L11.9420082,10.806508 L12.2734916,10.4750077 C12.4563122,10.2922264 12.7537315,10.2921951 12.9365521,10.4750077 L14.9256713,12.4640404 C15.1084919,12.646853 15.1084919,12.9442908 14.9257025,13.1270409 Z" id="Shape" fill="#000000" fill-rule="nonzero"></path>
                    </g>
                </g>
            </g>
        </g>
    </g>
</svg>