<?xml version="1.0" encoding="UTF-8"?>
<svg width="112px" height="38px" viewBox="0 0 112 38" version="1.1" xmlns="http://www.w3.org/2000/svg" xmlns:xlink="http://www.w3.org/1999/xlink">
    <title>Group 27</title>
    <g id="Desktop" stroke="none" stroke-width="1" fill="none" fill-rule="evenodd">
        <g id="Group-27" transform="translate(0.000000, 1.000000)" stroke="#C3FCF2" stroke-width="2">
            <path d="M0,26.37326 C4.59433505,26.37326 4.6875,35.37326 9.375,35.37326 C14.0625,35.37326 14.0625,26.37326 18.75,26.37326 C23.4375,26.37326 23.4375,35.37326 28.125,35.37326 C32.8125,35.37326 32.8125,26.37326 37.5,26.37326 C42.1875,26.37326 42.1875,35.37326 46.875,35.37326 C51.5625,35.37326 51.5625,26.37326 56.25,26.37326 C60.9375,26.37326 60.9375,35.37326 65.625,35.37326 C70.3125,35.37326 70.4069325,26.37326 75,26.37326 C79.5930675,26.37326 79.31337,35.4684708 84,35.37326 C88.68663,35.2780493 88.68663,26 93.37326,26 C98.05989,26 98.24652,35.2818407 102.74652,35.37326 C107.24652,35.4646793 107.24652,26.37326 111.74652,26.37326" id="Path-4-Copy-2"></path>
            <path d="M0,13.37326 C4.59433505,13.37326 4.6875,22.37326 9.375,22.37326 C14.0625,22.37326 14.0625,13.37326 18.75,13.37326 C23.4375,13.37326 23.4375,22.37326 28.125,22.37326 C32.8125,22.37326 32.8125,13.37326 37.5,13.37326 C42.1875,13.37326 42.1875,22.37326 46.875,22.37326 C51.5625,22.37326 51.5625,13.37326 56.25,13.37326 C60.9375,13.37326 60.9375,22.37326 65.625,22.37326 C70.3125,22.37326 70.4069325,13.37326 75,13.37326 C79.5930675,13.37326 79.31337,22.4684708 84,22.37326 C88.68663,22.2780493 88.68663,13 93.37326,13 C98.05989,13 98.24652,22.2818407 102.74652,22.37326 C107.24652,22.4646793 107.24652,13.37326 111.74652,13.37326" id="Path-4-Copy-3"></path>
            <path d="M-3.55271368e-14,0.373260019 C4.59433505,0.373260019 4.6875,9.37326002 9.375,9.37326002 C14.0625,9.37326002 14.0625,0.373260019 18.75,0.373260019 C23.4375,0.373260019 23.4375,9.37326002 28.125,9.37326002 C32.8125,9.37326002 32.8125,0.373260019 37.5,0.373260019 C42.1875,0.373260019 42.1875,9.37326002 46.875,9.37326002 C51.5625,9.37326002 51.5625,0.373260019 56.25,0.373260019 C60.9375,0.373260019 60.9375,9.37326002 65.625,9.37326002 C70.3125,9.37326002 70.4069325,0.373260019 75,0.373260019 C79.5930675,0.373260019 79.31337,9.46847076 84,9.37326002 C88.68663,9.27804928 88.68663,2.30038211e-13 93.37326,2.30038211e-13 C98.05989,2.30038211e-13 98.24652,9.28184075 102.74652,9.37326002 C107.24652,9.46467929 107.24652,0.373260019 111.74652,0.373260019" id="Path-4-Copy-4"></path>
        </g>
    </g>
</svg>