<?xml version="1.0" encoding="UTF-8"?>
<svg width="34px" height="72px" viewBox="0 0 34 72" version="1.1" xmlns="http://www.w3.org/2000/svg" xmlns:xlink="http://www.w3.org/1999/xlink">
    <title>Group 32</title>
    <g id="Desktop" stroke="none" stroke-width="1" fill="none" fill-rule="evenodd">
        <g id="Group-32" fill="#C3FCF2">
            <circle id="Oval" style="mix-blend-mode: overlay;" transform="translate(17.000000, 3.000000) rotate(90.000000) translate(-17.000000, -3.000000) " cx="17" cy="3" r="3"></circle>
            <circle id="Oval-Copy-25" style="mix-blend-mode: overlay;" transform="translate(31.000000, 3.000000) rotate(90.000000) translate(-31.000000, -3.000000) " cx="31" cy="3" r="3"></circle>
            <circle id="Oval-Copy-21" style="mix-blend-mode: overlay;" transform="translate(3.000000, 3.000000) rotate(90.000000) translate(-3.000000, -3.000000) " cx="3" cy="3" r="3"></circle>
            <circle id="Oval-Copy-18" style="mix-blend-mode: overlay;" transform="translate(17.000000, 25.000000) rotate(90.000000) translate(-17.000000, -25.000000) " cx="17" cy="25" r="3"></circle>
            <circle id="Oval-Copy-26" style="mix-blend-mode: overlay;" transform="translate(31.000000, 25.000000) rotate(90.000000) translate(-31.000000, -25.000000) " cx="31" cy="25" r="3"></circle>
            <circle id="Oval-Copy-22" style="mix-blend-mode: overlay;" transform="translate(3.000000, 25.000000) rotate(90.000000) translate(-3.000000, -25.000000) " cx="3" cy="25" r="3"></circle>
            <circle id="Oval-Copy-19" style="mix-blend-mode: overlay;" transform="translate(17.000000, 47.000000) rotate(90.000000) translate(-17.000000, -47.000000) " cx="17" cy="47" r="3"></circle>
            <circle id="Oval-Copy-27" style="mix-blend-mode: overlay;" transform="translate(31.000000, 47.000000) rotate(90.000000) translate(-31.000000, -47.000000) " cx="31" cy="47" r="3"></circle>
            <circle id="Oval-Copy-23" style="mix-blend-mode: overlay;" transform="translate(3.000000, 47.000000) rotate(90.000000) translate(-3.000000, -47.000000) " cx="3" cy="47" r="3"></circle>
            <circle id="Oval-Copy-20" style="mix-blend-mode: overlay;" transform="translate(17.000000, 69.000000) rotate(90.000000) translate(-17.000000, -69.000000) " cx="17" cy="69" r="3"></circle>
            <circle id="Oval-Copy-28" style="mix-blend-mode: overlay;" transform="translate(31.000000, 69.000000) rotate(90.000000) translate(-31.000000, -69.000000) " cx="31" cy="69" r="3"></circle>
            <circle id="Oval-Copy-24" style="mix-blend-mode: overlay;" transform="translate(3.000000, 69.000000) rotate(90.000000) translate(-3.000000, -69.000000) " cx="3" cy="69" r="3"></circle>
        </g>
    </g>
</svg>