<?xml version="1.0" encoding="UTF-8"?>
<svg width="222px" height="13px" viewBox="0 0 222 13" version="1.1" xmlns="http://www.w3.org/2000/svg" xmlns:xlink="http://www.w3.org/1999/xlink">
    <title>Path</title>
    <g id="Desktop" stroke="none" stroke-width="1" fill="none" fill-rule="evenodd">
        <polygon id="Path" fill="#BCDE8D" fill-rule="nonzero" points="203.283548 9.9439258 212.641814 0.585786438 221.999401 9.94492419 222 12.7678506 212.641475 3.41045 203.283629 12.7678506 194.298022 3.78285013 185.312576 12.7678506 176.32697 3.78285013 167.341524 12.7678506 157.98252 3.41045 148.625153 12.7678506 139.266668 3.41045 129.908781 12.7678506 120.549817 3.41045 111.19241 12.7678506 102.206365 3.78285013 93.221358 12.7678506 83.8629126 3.41045 74.5049865 12.7678506 65.5044846 3.76887265 56.1595376 12.7398999 46.7996146 3.75489516 37.4396917 12.7398999 28.0797688 3.75489516 18.7198459 12.7398999 9.35992293 3.75489516 1.61026855e-15 12.7398999 1.61026855e-15 9.97188077 9.35992293 0.986396835 18.7198459 9.97188077 28.0797688 0.986396835 37.4396917 9.97188077 46.7996146 0.986396835 56.1595376 9.97188077 65.533721 0.972706715 74.5049865 9.9439258 83.8631722 0.585786438 93.2208388 9.94492419 102.206884 0.958446172 111.191891 9.94492419 120.550596 0.585786438 129.908741 9.9439258 139.266967 0.585786438 148.624594 9.94492419 157.983339 0.585786438 167.341444 9.9439258 176.32705 0.958446172 185.312496 9.9439258 194.298103 0.958446172"></polygon>
    </g>
</svg>