<?xml version="1.0" encoding="UTF-8"?>
<svg width="114px" height="31px" viewBox="0 0 114 31" version="1.1" xmlns="http://www.w3.org/2000/svg" xmlns:xlink="http://www.w3.org/1999/xlink">
    <title>Group 27</title>
    <g id="Desktop" stroke="none" stroke-width="1" fill="none" fill-rule="evenodd">
        <g id="Group-27" transform="translate(1.000000, 2.000000)" stroke="#C3FCF2" stroke-width="2">
            <polyline id="Path-4" points="0 0.373260019 9.375 9.37326002 18.75 0.373260019 28.125 9.37326002 37.5 0.373260019 46.875 9.37326002 56.25 0.373260019 65.625 9.37326002 75 0.373260019 84 9.37326002 93.37326 2.27308635e-13 102.74652 9.37326002 111.74652 0.373260019"></polyline>
            <polyline id="Path-4-Copy" points="0 9.37326002 9.375 18.37326 18.75 9.37326002 28.125 18.37326 37.5 9.37326002 46.875 18.37326 56.25 9.37326002 65.625 18.37326 75 9.37326002 84 18.37326 93.37326 9 102.74652 18.37326 111.74652 9.37326002"></polyline>
            <polyline id="Path-4-Copy-2" points="0 18.37326 9.375 27.37326 18.75 18.37326 28.125 27.37326 37.5 18.37326 46.875 27.37326 56.25 18.37326 65.625 27.37326 75 18.37326 84 27.37326 93.37326 18 102.74652 27.37326 111.74652 18.37326"></polyline>
        </g>
    </g>
</svg>