<?xml version="1.0" encoding="UTF-8"?>
<svg width="120px" height="50px" viewBox="0 0 120 50" version="1.1" xmlns="http://www.w3.org/2000/svg" xmlns:xlink="http://www.w3.org/1999/xlink">
    <title>Group</title>
    <defs>
        <filter id="filter-1">
            <feColorMatrix in="SourceGraphic" type="matrix" values="0 0 0 0 1.000000 0 0 0 0 1.000000 0 0 0 0 1.000000 0 0 0 1.000000 0"></feColorMatrix>
        </filter>
    </defs>
    <g id="Symbols" stroke="none" stroke-width="1" fill="none" fill-rule="evenodd">
        <g id="Menu/Default" transform="translate(-150.000000, -15.000000)">
            <g id="Group" transform="translate(150.000000, 15.000000)">
                <path d="M33.4319184,21.7196456 C34.0603379,22.1038752 34.6049681,23.0857953 34.6049681,23.8969466 C34.6049681,24.708098 34.0603379,25.0496355 33.4319184,24.708098 L26.5193037,20.6950333 C25.8908842,20.3108037 25.3462539,19.3288836 25.3462539,18.47504 L25.3462539,10.6623715 C25.3462539,9.8085279 25.8908842,9.4242983 26.5193037,9.8085279 L26.8544607,10.0219888 C27.4828803,10.4062184 28.0275105,11.3881385 28.0275105,12.241982 L28.0275105,15.4438954 C28.0275105,16.297739 28.5721408,16.6819686 29.2005603,16.297739 L37.4538033,11.516215 C38.0822228,11.1319854 38.1241174,10.5342949 37.4538033,10.1500653 L21.0311065,0.288172202 C20.402687,-0.0960574005 19.3553212,-0.0960574005 18.685007,0.288172202 L2.34609953,10.064681 C1.71768002,10.4489106 1.71768002,11.0892932 2.34609953,11.4308307 L10.5574479,16.2550468 C11.1858674,16.6392764 11.7304977,16.2550468 11.7304977,15.4012032 L11.7304977,12.1992899 C11.7304977,11.3454463 12.2751279,10.3635262 12.9035474,9.97929661 L13.2387045,9.76583572 C13.867124,9.38160612 14.4117543,9.76583572 14.4117543,10.6196793 L14.4117543,18.4323479 C14.4117543,19.2861914 13.867124,20.2681115 13.2387045,20.6523411 L6.32608982,24.6654059 C5.6976703,25.0496355 5.15304005,24.6654059 5.15304005,23.8542545 C5.15304005,23.0431031 5.6976703,22.061183 6.32608982,21.6769534 L9.25871424,19.9265741 C9.88713375,19.5423445 9.88713375,18.9019618 9.25871424,18.5177322 L1.17304977,13.7362083 C0.544630249,13.3519787 0,13.7362083 0,14.5900518 L0,33.5880711 C0,34.4419146 0.544630249,35.4665269 1.17304977,35.8507565 L17.428168,45.5845731 C18.0565875,45.9688027 18.6012177,45.5845731 18.6012177,44.7307295 L18.6012177,34.6980677 C18.6012177,33.8442241 18.0565875,33.4599945 17.428168,33.8442241 L14.4955436,35.5519112 C13.867124,35.9361408 12.7778635,35.9361408 12.149444,35.5946034 L11.8561816,35.4238347 C11.1858674,35.0822973 11.1858674,34.4419146 11.8561816,34.057685 L18.8106909,29.9165437 C19.4391104,29.5323141 20.5283709,29.5323141 21.1567904,29.9165437 L28.0275105,33.9723007 C28.65593,34.3565303 28.6978247,34.9969129 28.0275105,35.4238347 L27.7342481,35.5946034 C27.1058286,36.0215252 26.0584627,36.0215252 25.4300432,35.6372956 L22.4136295,33.8015319 C21.78521,33.4173023 21.2405797,33.8015319 21.2405797,34.6553755 L21.2405797,44.6880373 C21.2405797,45.5418809 21.78521,45.9261105 22.4136295,45.5418809 L38.5430638,35.8934487 C39.1714833,35.5092191 39.7161136,34.4846068 39.7161136,33.6734554 L39.7161136,14.7608205 C39.7161136,13.906977 39.1714833,13.5227474 38.5430638,13.906977 L30.5411886,18.6031166 C29.9127691,18.9873462 29.9127691,19.6277288 30.5411886,20.0119584 L33.4319184,21.7196456 Z M35.8199125,26.2023243 C35.8199125,25.3484807 36.3645428,24.3665606 36.9929623,23.982331 L37.1605408,23.8969466 C37.7889604,23.512717 38.3335906,23.8969466 38.3335906,24.7507902 L38.3335906,32.3926901 C38.3335906,33.2465336 37.7889604,34.2711459 37.1605408,34.6553755 L30.37361,38.7111324 C29.7451905,39.095362 29.2005603,38.7538246 29.2005603,37.9426732 C29.2005603,37.1315218 29.7032959,36.1496017 30.37361,35.7653721 L33.2224452,34.057685 C33.8508647,33.6734554 33.8508647,33.0330727 33.2224452,32.6488431 L21.0730012,25.4338651 C20.4445817,25.0496355 19.3553212,25.0496355 18.7269016,25.4338651 L6.57745762,32.5634588 C5.94903811,32.9476884 5.94903811,33.5880711 6.57745762,33.9723007 L9.51008204,35.72268 C10.1385016,36.1069096 10.6831318,37.0888297 10.6831318,37.899981 C10.6831318,38.7111324 10.1385016,39.0526698 9.51008204,38.7111324 L2.55557271,34.6980677 C1.92715319,34.3138381 1.38252294,33.331918 1.38252294,32.4780744 L1.38252294,24.6227137 C1.38252294,23.7688701 1.92715319,23.3846405 2.55557271,23.7688701 L2.89072978,23.982331 C3.5191493,24.3665606 4.06377955,25.3484807 4.06377955,26.2023243 L4.06377955,29.4042376 C4.06377955,30.2580812 4.6084098,30.6423108 5.23682932,30.2580812 L17.428168,23.1284874 C18.0565875,22.7442578 18.6012177,21.7623377 18.6012177,20.9084942 L18.6012177,6.77738326 C18.6012177,5.9235397 18.0565875,5.5393101 17.428168,5.9235397 L14.4955436,7.63122682 C13.867124,8.01545642 12.7778635,8.01545642 12.149444,7.673919 L11.8561816,7.50315029 C11.1858674,7.16161286 11.1858674,6.52123019 11.8561816,6.13700059 L18.7687963,1.99585932 C19.3972158,1.61162972 20.4864763,1.61162972 21.1148958,1.99585932 L27.9856159,6.05161623 C28.6140354,6.43584584 28.65593,7.07622851 27.9856159,7.50315029 L27.6923534,7.673919 C27.0639339,8.10084078 26.0165681,8.10084078 25.3881485,7.71661118 L22.3717349,5.88084752 C21.7433153,5.49661792 21.1986851,5.88084752 21.1986851,6.73469108 L21.1986851,20.8231098 C21.1986851,21.6769534 21.7433153,22.6588735 22.3717349,23.0431031 L34.6468628,30.2580812 C35.2752823,30.6423108 35.8199125,30.2580812 35.8199125,29.4042376 L35.8199125,26.2023243 L35.8199125,26.2023243 Z" id="Shape" fill="#B6BD00" fill-rule="nonzero"></path>
                <g filter="url(#filter-1)">
                    <g transform="translate(51.751299, 0.000000)">
                        <g transform="translate(19.376649, 32.093829)" fill="#FFFFFF" fill-rule="nonzero">
                            <polygon id="XMLID_17_" points="0.336985206 12.8375317 2.35889644 2.02697868 3.62259096 2.02697868 1.60067973 12.8375317"></polygon>
                            <path d="M9.01435426,12.4574732 C8.4667533,12.7530742 7.58216713,13.0486753 6.61333467,13.0486753 C4.71779288,13.0486753 3.87532987,11.6973561 3.87532987,10.050436 C3.87532987,7.81231367 5.4760096,5.32081904 7.83490604,5.32081904 C9.22497001,5.32081904 9.94106357,6.16539349 9.94106357,7.22111156 C9.94106357,9.16363279 7.79278289,9.67037746 5.13902439,9.62814874 C5.09690124,9.96597852 5.13902439,10.6416381 5.30751699,11.0216966 C5.60237905,11.6973561 6.19210316,11.9929572 6.90819672,11.9929572 C7.75065974,11.9929572 8.42463015,11.7395849 8.84586166,11.4862125 L9.01435426,12.4574732 Z M8.7194922,7.22111156 C8.7194922,6.62990944 8.25613754,6.29207966 7.62429028,6.29207966 C6.44484206,6.29207966 5.5602559,7.47448389 5.26539384,8.6146594 C7.20305878,8.65688812 8.7194922,8.40351579 8.7194922,7.22111156 L8.7194922,7.22111156 Z" id="Shape"></path>
                            <path d="M15.37495,12.8375317 C15.37495,12.4152444 15.4591963,11.6973561 15.5434426,10.9372391 L15.5013195,10.9372391 C14.7009796,12.4574732 13.690024,13.0064465 12.6790684,13.0064465 C11.3732507,13.0064465 10.615034,11.9507285 10.615034,10.5571806 C10.615034,7.98122856 12.4684526,5.27859032 15.6276889,5.27859032 C16.3016593,5.27859032 17.1019992,5.40527649 17.5653539,5.57419138 L16.8492603,9.41700513 C16.5965214,10.6838668 16.5122751,11.9929572 16.5543982,12.8375317 L15.37495,12.8375317 Z M16.1752899,6.41876583 C16.0067973,6.3765371 15.7540584,6.33430838 15.3328269,6.33430838 C13.4794082,6.33430838 11.9208517,8.31905834 11.9208517,10.3882657 C11.9208517,11.2328402 12.2157137,12.0351859 13.142423,12.0351859 C14.1955018,12.0351859 15.4170732,10.6416381 15.7540584,8.69911684 L16.1752899,6.41876583 Z" id="Shape"></path>
                            <path d="M18.44994,11.57067 C18.7869252,11.7818136 19.4187725,12.0351859 20.0084966,12.0351859 C20.8509596,12.0351859 21.3985606,11.4862125 21.3985606,10.810553 C21.3985606,10.2193509 21.1458217,9.88152108 20.387605,9.45923385 C19.5451419,8.9947179 19.0817873,8.36128706 19.0817873,7.60117006 C19.0817873,6.29207966 20.1769892,5.32081904 21.7355458,5.32081904 C22.367393,5.32081904 22.9571172,5.48973393 23.2519792,5.70087754 L22.914994,6.67213816 C22.6622551,6.50322327 22.1989004,6.33430838 21.6512995,6.33430838 C20.8930828,6.33430838 20.3454818,6.84105305 20.3454818,7.43225517 C20.3454818,7.98122856 20.682467,8.31905834 21.3564374,8.65688812 C22.1567773,9.12140407 22.7043782,9.75483491 22.7043782,10.5994094 C22.7043782,12.1618721 21.4828069,13.0486753 19.9242503,13.0486753 C19.1660336,13.0486753 18.44994,12.7953029 18.1129548,12.5419306 L18.44994,11.57067 Z" id="XMLID_12_"></path>
                            <polygon id="XMLID_11_" points="23.9680728 12.8375317 25.3160136 5.44750521 26.5797081 5.44750521 25.1896441 12.8375317"></polygon>
                            <path d="M26.3690924,3.63167014 C25.4845062,3.63167014 24.8526589,2.91378186 24.8526589,1.94252124 C24.8947821,0.886803173 25.6529988,0.0844574451 26.6218313,0.0844574451 C27.5906637,0.0844574451 28.222511,0.802345728 28.222511,1.77360635 C28.1803878,2.87155313 27.4221711,3.63167014 26.3690924,3.63167014 L26.3690924,3.63167014 Z" id="XMLID_10_"></path>
                            <path d="M26.4533387,2.70263824 C26.0321072,2.70263824 25.7372451,2.36480846 25.7372451,1.85806379 C25.7372451,1.35131912 26.1163535,0.971260619 26.5797081,0.971260619 C27.0430628,0.971260619 27.3379248,1.3090904 27.3379248,1.81583507 C27.3379248,2.36480846 26.9588165,2.70263824 26.4533387,2.70263824 L26.4533387,2.70263824 Z" id="XMLID_9_"></path>
                            <path d="M27.380048,12.8375317 L28.3488804,7.60117006 C28.5173731,6.75659561 28.6016194,6.08093605 28.6858657,5.44750521 L29.8231907,5.44750521 L29.612575,6.88328178 L29.6546981,6.88328178 C30.3286685,5.82756371 31.297501,5.27859032 32.3505798,5.27859032 C33.1930428,5.27859032 34.1618752,5.78533499 34.1618752,7.305569 C34.1618752,7.64339878 34.1197521,8.10791473 34.0355058,8.48797323 L33.2351659,12.7953029 L32.0135946,12.7953029 L32.8139344,8.53020195 C32.8560576,8.2346009 32.8981807,7.89677112 32.8981807,7.60117006 C32.8981807,6.88328178 32.6033187,6.33430838 31.7608557,6.33430838 C30.8762695,6.33430838 29.612575,7.43225517 29.2755898,9.24809024 L28.6016194,12.8375317 L27.380048,12.8375317 L27.380048,12.8375317 Z" id="XMLID_8_"></path>
                            <path d="M35.4676929,14.5266806 C35.8889244,14.8222816 36.6471411,15.0334252 37.3632347,15.0334252 C38.5848061,15.0334252 39.5536385,14.3999944 39.9748701,12.4152444 L40.227609,11.3172976 L40.1854858,11.3172976 C39.5536385,12.3730157 38.6690524,12.8797604 37.6580968,12.8797604 C36.1837865,12.8797604 35.4255698,11.6128987 35.4255698,10.3038083 C35.4255698,7.77008495 37.2368653,5.32081904 40.0169932,5.32081904 C40.8594562,5.32081904 41.7861655,5.57419138 42.3337665,5.82756371 L41.1964414,11.9507285 C40.9015794,13.5131912 40.4803479,14.611138 39.7642543,15.2445688 C39.0481607,15.8779997 38.0793283,16.0469146 37.2368653,16.0469146 C36.3522791,16.0469146 35.5098161,15.835771 35.0464614,15.5401699 L35.4676929,14.5266806 Z M41.0279488,6.54545199 C40.7752099,6.41876583 40.3539784,6.29207966 39.8485006,6.29207966 C38.0372051,6.29207966 36.7735106,8.2346009 36.7735106,10.050436 C36.7735106,10.8527817 37.0683727,11.8240423 38.1635746,11.8240423 C39.2166533,11.8240423 40.3118553,10.4304945 40.5645942,8.9947179 L41.0279488,6.54545199 Z" id="Shape"></path>
                        </g>
                        <g fill="#FFFFFF" fill-rule="nonzero">
                            <path d="M14.0691323,32.1782866 C14.1112555,30.9114249 14.237625,29.3489622 14.3218713,27.7864994 L14.237625,27.7864994 C12.1735906,31.4603983 9.39346261,32.6850313 6.86607357,32.6850313 C2.94862055,32.6850313 0.294862055,29.6023345 0.294862055,24.9994037 C0.294862055,17.5249199 5.18114754,9.5436913 15.8383047,9.5436913 C18.44994,9.5436913 21.230068,10.050436 22.9992403,10.6416381 L20.8088365,22.2545368 C20.2612355,25.1260899 19.840004,29.4756483 19.9242503,32.2205153 L14.0691323,32.2205153 L14.0691323,32.1782866 Z M15.8383047,14.6533667 C15.3328269,14.5689093 14.8273491,14.4844518 14.1533786,14.4844518 C10.0253099,14.4844518 6.99244302,19.636356 6.99244302,23.7747708 C6.99244302,25.9706644 7.83490604,27.4486697 9.60407837,27.4486697 C11.4996202,27.4486697 13.9427629,25.2105474 14.9537185,19.8052709 L15.8383047,14.6533667 Z" id="Shape"></path>
                            <path d="M35.0043383,0 L32.4348261,12.7108455 L32.5190724,12.7108455 C34.1197521,10.7683242 36.5628948,9.5436913 39.2166533,9.5436913 C43.7659536,9.5436913 45.7878649,13.3442763 45.7878649,17.3137762 C45.7878649,24.4926591 41.1543183,32.72726 31.3817473,32.72726 C26.2427229,32.72726 23.6310876,30.446909 23.6310876,26.5196378 C23.6310876,25.1683186 23.8417033,23.8169995 24.1365654,22.4656804 L28.5594962,0 L35.0043383,0 Z M30.5392843,22.8457389 C30.4129148,23.5636272 30.2865454,24.4082016 30.3286685,25.2950048 C30.3707917,26.8996963 31.2553778,27.7442707 32.7718113,27.7442707 C36.5207717,27.7442707 39.132407,22.5079091 39.132407,18.6228666 C39.132407,16.4269731 38.2478209,14.8222816 36.2680328,14.8222816 C33.9512595,14.8222816 31.6766094,17.1870901 30.9183926,21.0299038 L30.5392843,22.8457389 Z" id="Shape"></path>
                            <path d="M63.0583567,31.502627 C61.6682927,32.1782866 59.4778888,32.6850313 56.8662535,32.6850313 C51.4744902,32.6850313 47.7255298,29.3489622 47.7255298,23.5636272 C47.7255298,15.6668561 53.6227709,9.50146257 61.9210316,9.50146257 C63.7744502,9.50146257 65.7121152,9.83929235 67.2706717,10.6416381 L64.7854058,15.2445688 C64.0271891,14.9067391 63.142603,14.6955954 61.8367853,14.6955954 C57.287485,14.6955954 54.4652339,18.6228666 54.4652339,22.8035102 C54.4652339,25.8862069 56.3607757,27.4486697 58.7196721,27.4486697 C60.5730908,27.4486697 61.9210316,26.9841537 63.0162335,26.5618665 L63.0583567,31.502627 Z" id="XMLID_1_"></path>
                        </g>
                    </g>
                </g>
            </g>
        </g>
    </g>
</svg>