<?xml version="1.0" encoding="UTF-8"?>
<svg width="42px" height="42px" viewBox="0 0 42 42" version="1.1" xmlns="http://www.w3.org/2000/svg" xmlns:xlink="http://www.w3.org/1999/xlink">
    <title>coche</title>
    <defs>
        <circle id="path-1" cx="21" cy="21" r="21"></circle>
    </defs>
    <g id="Desktop" stroke="none" stroke-width="1" fill="none" fill-rule="evenodd">
        <g id="coche">
            <mask id="mask-2" fill="white">
                <use xlink:href="#path-1"></use>
            </mask>
            <use id="Mask" fill="#D7ECE9" xlink:href="#path-1"></use>
            <path d="M12.7019701,18.1461165 C13.9495097,15.9345691 20.5645655,11.5971408 29.2012481,12.7531181 C37.8379307,13.9090955 41.8606431,18.2085403 41.5949328,16.8746368 C39.6781405,7.25206616 31.1859756,0 21,0 C9.40202025,0 6.68909372e-15,9.40202025 6.68909372e-15,21 C-2.3386848e-13,21.8203949 -0.343518996,23.6387879 2.28372876e-13,23.1265612 C1.77183296,20.4845528 6.99748719,18.1461165 12.7019701,18.1461165 Z" id="Mask" fill="#A9E4DA" opacity="0.572893415" mask="url(#mask-2)"></path>
            <path d="M28.2304074,12.2426576 C32.154565,12.2382668 36.0338617,13.0906419 39.608105,14.7425 C40.6904135,15.2405664 41.7401564,15.8081382 42.7516845,16.4421643 L42.7516845,16.4421643 L48.2991387,17.2504626 C48.7012244,17.3094576 48.9999822,17.6610538 48.9999822,18.0753745 L48.9999822,18.0753745 L48.9999822,24.8248693 C49.0042841,26.1210625 48.2303521,27.2880772 47.0486852,27.7654614 L47.0486852,27.7654614 L44.4035591,28.8483914 C44.3068591,28.8877214 44.2038455,28.9077254 44.0998349,28.9077254 L44.0998349,28.9077254 L43.8067442,28.9077254 C43.3159338,30.3364877 42.214684,31.4601038 40.8143623,31.9608826 C38.2699238,32.8708964 35.4842338,31.5038414 34.5923345,28.9077254 L34.5923345,28.9077254 L12.7733671,28.9077254 C12.2825566,30.3364877 11.1816392,31.4601038 9.7809851,31.9608826 C7.23654661,32.8708964 4.45085662,31.5038414 3.5589574,28.9077254 L3.5589574,28.9077254 L0.816798948,28.9077254 C0.365532502,28.9077254 0,28.5347689 0,28.0743372 L0,28.0743372 L0,23.1265612 C0.00199381365,21.7659483 0.716443703,20.509763 1.87352027,19.8326775 C4.72068615,18.1767509 7.93471375,17.2874192 11.2118787,17.2497846 L11.2118787,17.2497846 L14.0115254,15.6915046 C18.0789052,13.4317275 22.6357664,12.246065 27.2667309,12.2426576 L27.2667309,12.2426576 Z M8.82063157,23.9748676 C7.05311575,23.6063188 5.32747006,24.7696039 4.96592519,26.5730179 C4.60471259,28.376771 5.74484172,30.1374645 7.51268982,30.5060133 C9.28020564,30.8745621 11.0058513,29.711277 11.3670639,27.907863 C11.4109278,27.6884968 11.4331922,27.465062 11.4331922,27.2412881 C11.4335244,25.6572403 10.3415791,24.2918806 8.82063157,23.9748676 Z M39.8540086,23.9748676 C38.0864929,23.6063188 36.3605149,24.7696039 35.9993023,26.5730179 C35.6380898,28.376771 36.7782188,30.1374645 38.5457346,30.5060133 C40.3135827,30.8745621 42.0392284,29.711277 42.400441,27.907863 C42.4443049,27.6884968 42.4665692,27.465062 42.4665692,27.2412881 C42.4669015,25.6572403 41.3749562,24.2918806 39.8540086,23.9748676 Z M26.1332478,18.9087627 L11.4331921,18.9087627 C8.36471285,18.9097799 5.34940197,19.7268935 2.68433781,21.2794096 C2.03501913,21.6584689 1.63426263,22.3633567 1.6332657,23.1265612 L1.6332657,23.1265612 L1.6332657,27.2412881 L3.2665314,27.2412881 C3.2665314,24.4800541 5.46039097,22.2416372 8.16666069,22.2416372 C10.8729304,22.2416372 13.0664577,24.4800541 13.0664577,27.2412881 L13.0664577,27.2412881 L26.1332478,27.2412881 L26.1332478,18.9087627 Z M39.4449446,16.5035325 L37.3271822,18.6643066 C37.1743231,18.8206094 36.9666342,18.9084236 36.7499731,18.9084236 L36.7499731,18.9084236 L27.7668458,18.9084236 L27.7668458,27.2402709 L34.3025669,27.2402709 C34.3052253,24.4800541 36.4974234,22.2433325 39.2026962,22.2406201 C39.3741642,22.2406201 39.5373246,22.2497744 39.7008173,22.2663879 C39.7612964,22.2721519 39.8191169,22.2857139 39.8795959,22.2938512 C39.9816127,22.3091084 40.0846265,22.3206361 40.1849817,22.3416574 C40.2477869,22.3548804 40.3072689,22.3748844 40.3694095,22.3898027 C40.4644479,22.4138753 40.5598187,22.4348965 40.6528633,22.4640549 C40.7223145,22.4864323 40.7754828,22.5098268 40.8572292,22.5400024 C40.9386433,22.5698389 41.0326848,22.6013707 41.102136,22.6315463 C41.1715871,22.6613828 41.2304047,22.6939317 41.305505,22.7305493 C41.3806053,22.7671668 41.4630163,22.8048015 41.5291445,22.8407409 C41.5952726,22.8763413 41.6524286,22.9129588 41.7228766,22.959748 C41.7929924,23.006537 41.8664312,23.0455279 41.9318947,23.0896046 C41.9970261,23.1340203 42.0591665,23.184878 42.1213071,23.2323452 C42.1831154,23.2798124 42.2462527,23.3215157 42.308061,23.3754248 C42.3702015,23.4296731 42.4306805,23.4907023 42.4871719,23.5422381 C42.5433309,23.5937739 42.5988254,23.6398849 42.6553169,23.6982017 C42.7114759,23.7565185 42.7679674,23.8273803 42.8184773,23.8795942 C42.8693195,23.9321472 42.9181679,23.9823268 42.9703394,24.0464074 C43.0225109,24.1104881 43.0733531,24.1830451 43.1182139,24.2447524 C43.1630747,24.3064598 43.206274,24.3603689 43.2531286,24.4288573 C43.299651,24.4970066 43.3445117,24.5729541 43.381065,24.6397472 C43.4179505,24.7062014 43.4611499,24.7672305 43.4996969,24.8387704 C43.5379117,24.9103102 43.5714742,24.987953 43.6057014,25.0588148 C43.6399285,25.1296765 43.6784755,25.1978258 43.7070535,25.2727561 C43.7356316,25.3480255 43.7608865,25.4263463 43.7887999,25.5019548 C43.816381,25.5779023 43.8459558,25.6521545 43.870214,25.7294582 C43.8948043,25.807101 43.9110872,25.8871171 43.9323545,25.966116 C43.9536219,26.0454541 43.9775476,26.1295388 43.9938304,26.2054863 C44.0101132,26.2810948 44.01975,26.3645013 44.033042,26.447908 C44.0460019,26.5309756 44.0622846,26.6143822 44.0705923,26.6977888 C44.0785675,26.7811955 44.080229,26.8710441 44.0852135,26.9476696 C44.090198,27.0242953 44.0998349,27.1002428 44.0998349,27.1768683 L44.0998349,27.1768683 L46.4422336,26.2170141 C47.0018306,25.9915449 47.3686923,25.4388913 47.3667066,24.8248693 L47.3667066,24.8248693 L47.3667066,21.4085881 L44.9166338,21.4085881 L44.9166338,19.7418118 L47.3667066,19.7418118 L47.3667066,18.7975539 L42.3505957,18.0668982 C42.2379452,18.0502847 42.1302793,18.0099376 42.0339116,17.9485693 C41.1981713,17.4176149 40.3338531,16.9351449 39.4449446,16.5035325 L39.4449446,16.5035325 Z M24,20.2426407 L24,21.2426407 L21,21.2426407 L21,20.2426407 L24,20.2426407 Z M26.1332478,13.9457293 C22.1635648,14.1210188 18.2852649,15.2185281 14.793765,17.1545111 L14.793765,17.1545111 L14.6362537,17.2423254 L26.1332478,17.2423254 Z M28.2287459,13.9090955 L27.7665135,13.9090955 L27.7665135,17.2423254 L36.4120217,17.2423254 L37.8379307,15.7874561 C34.7810822,14.5427988 31.5198676,13.9053823 28.2287459,13.9090955 L28.2287459,13.9090955 Z" id="Combined-Shape" fill="#4B8178" fill-rule="nonzero" mask="url(#mask-2)"></path>
        </g>
    </g>
</svg>